<svg width="30" height="30" viewBox="0 0 30 30" fill="none" xmlns="http://www.w3.org/2000/svg">
<path d="M15.2667 11.1979C13.0115 11.1979 11.1833 13.0261 11.1833 15.2812C11.1833 17.5364 13.0115 19.3646 15.2667 19.3646C17.5218 19.3646 19.35 17.5364 19.35 15.2812C19.3539 14.1971 18.9249 13.1562 18.1583 12.3896C17.3917 11.623 16.3508 11.194 15.2667 11.1979Z" fill="#FEFEFE"/>
<path fill-rule="evenodd" clip-rule="evenodd" d="M20.8812 0.916656H9.66666C4.83416 0.916656 0.916656 4.83416 0.916656 9.66666V20.8812C0.916656 25.7137 4.83416 29.6312 9.66666 29.6312H20.8812C25.7137 29.6312 29.6312 25.7137 29.6312 20.8812V9.66666C29.6312 4.83416 25.7137 0.916656 20.8812 0.916656ZM15.2667 21.5375C11.8148 21.5295 9.01842 18.7331 9.01041 15.2812C9.00451 12.7423 10.5302 10.4503 12.8748 9.47597C15.2193 8.50163 17.9201 9.0372 19.7154 10.8325C21.5107 12.6278 22.0463 15.3286 21.0719 17.6731C20.0976 20.0177 17.8056 21.5434 15.2667 21.5375ZM20.7134 8.07965C20.9632 8.67494 21.5482 9.06005 22.1937 9.05416C23.0636 9.05416 23.7687 8.34901 23.7687 7.47916C23.7746 6.83361 23.3895 6.24862 22.7942 5.99885C22.1989 5.74908 21.5117 5.88415 21.0552 6.34063C20.5987 6.79712 20.4637 7.48435 20.7134 8.07965Z" fill="#FEFEFE"/>
</svg>
