<svg width="32" height="32" viewBox="0 0 32 32" fill="none" xmlns="http://www.w3.org/2000/svg">
<path d="M2.66669 2.6665H4.40824C4.73626 2.6665 4.90028 2.6665 5.03226 2.72682C5.14858 2.77998 5.24715 2.86547 5.31622 2.9731C5.3946 3.09523 5.4178 3.2576 5.46418 3.58232L6.09526 7.99984M6.09526 7.99984L7.49778 18.3084C7.67576 19.6165 7.76475 20.2706 8.07749 20.763C8.35306 21.1968 8.74813 21.5418 9.21516 21.7563C9.74517 21.9998 10.4053 21.9998 11.7255 21.9998H23.136C24.3927 21.9998 25.0211 21.9998 25.5346 21.7737C25.9874 21.5744 26.3758 21.253 26.6564 20.8455C26.9746 20.3833 27.0922 19.7661 27.3273 18.5315L29.0922 9.26609C29.1749 8.83158 29.2163 8.61433 29.1563 8.4445C29.1037 8.29553 28.9999 8.17008 28.8634 8.09053C28.7078 7.99984 28.4867 7.99984 28.0443 7.99984H6.09526ZM13.3334 27.9998C13.3334 28.7362 12.7364 29.3332 12 29.3332C11.2636 29.3332 10.6667 28.7362 10.6667 27.9998C10.6667 27.2635 11.2636 26.6665 12 26.6665C12.7364 26.6665 13.3334 27.2635 13.3334 27.9998ZM24 27.9998C24 28.7362 23.4031 29.3332 22.6667 29.3332C21.9303 29.3332 21.3334 28.7362 21.3334 27.9998C21.3334 27.2635 21.9303 26.6665 22.6667 26.6665C23.4031 26.6665 24 27.2635 24 27.9998Z" stroke="#FEFEFE" stroke-width="2" stroke-linecap="round" stroke-linejoin="round"/>
</svg>
