<svg aria-hidden="true" style="position: absolute; width: 0; height: 0; overflow: hidden;" version="1.1" xmlns="http://www.w3.org/2000/svg" xmlns:xlink="http://www.w3.org/1999/xlink">
<defs>
<symbol id="icon-cross" viewBox="0 0 24 24">
<path d="M18 6L6 18M6 6L18 18" stroke-linecap="round" stroke-linejoin="round"/>
</symbol>
<symbol id="icon-discount" viewBox="0 0 57 55">
<path d="M23.2205 4.15229C24.8886 -0.951232 32.1114 -0.951232 33.7795 4.1523C34.8342 7.37914 38.5146 8.91184 41.5469 7.38542L41.9591 7.17792C46.6638 4.80964 51.6278 9.89152 49.1535 14.5413C47.562 17.532 49.0866 21.2334 52.3232 22.2341C57.3937 23.8018 57.3937 30.979 52.3232 32.5467C49.0866 33.5475 47.562 37.2488 49.1535 40.2395C51.6278 44.8893 46.6638 49.9712 41.9591 47.6029L41.5469 47.3954C38.5146 45.869 34.8342 47.4017 33.7795 50.6285C32.1114 55.7321 24.8886 55.7321 23.2205 50.6285C22.1658 47.4017 18.4854 45.869 15.4531 47.3954L15.0409 47.6029C10.3362 49.9712 5.37217 44.8893 7.84653 40.2395C9.438 37.2488 7.91337 33.5475 4.67679 32.5467C-0.393717 30.979 -0.393717 23.8018 4.67679 22.2341C7.91337 21.2334 9.438 17.532 7.84653 14.5413C5.37217 9.89152 10.3362 4.80964 15.0409 7.17793L15.4531 7.38542C18.4854 8.91184 22.1658 7.37914 23.2205 4.15229Z" fill="#FF5E00"/>
</symbol>
<symbol id="icon-chevron-right" viewBox="0 0 32 32">
<path stroke-linejoin="round" stroke-linecap="round" stroke-miterlimit="4" stroke-width="2.6667" d="M12 24l8-8-8-8"></path>
</symbol>
<symbol id="icon-chevron-up" viewBox="0 0 32 32">
<path stroke-linejoin="round" stroke-linecap="round" stroke-miterlimit="4" stroke-width="2.6667" d="M24 20l-8-8-8 8"></path>
</symbol>
<symbol id="icon-chevron-down" viewBox="0 0 31 32">
<path stroke-linejoin="round" stroke-linecap="round" stroke-miterlimit="4" stroke-width="2.56" d="M7.68 12.16l7.68 7.68 7.68-7.68"></path>
</symbol>
<symbol id="icon-wallet_payment" viewBox="0 0 32 32">
<path fill="none" stroke="#757a85" style="stroke: var(--color6, #757a85)" stroke-linejoin="round" stroke-linecap="round" stroke-miterlimit="4" stroke-width="1.3333" d="M17.333 12h-8"></path>
<path fill="none" stroke="#757a85" style="stroke: var(--color6, #757a85)" stroke-linejoin="round" stroke-linecap="round" stroke-miterlimit="4" stroke-width="1.3333" d="M29.334 14.627v2.747c0 0.733-0.587 1.333-1.333 1.36h-2.613c-1.44 0-2.76-1.053-2.88-2.493-0.080-0.84 0.24-1.627 0.8-2.173 0.493-0.507 1.173-0.8 1.92-0.8h2.773c0.747 0.027 1.333 0.627 1.333 1.36z"></path>
<path fill="none" stroke="#757a85" style="stroke: var(--color6, #757a85)" stroke-linejoin="round" stroke-linecap="round" stroke-miterlimit="4" stroke-width="1.3333" d="M23.307 14.067c-0.56 0.547-0.88 1.333-0.8 2.173 0.12 1.44 1.44 2.493 2.88 2.493h2.613v1.933c0 4-2.667 6.667-6.667 6.667h-12c-4 0-6.667-2.667-6.667-6.667v-9.333c0-3.627 2.187-6.16 5.587-6.587 0.347-0.053 0.707-0.080 1.080-0.080h12c0.347 0 0.68 0.013 1 0.067 3.44 0.4 5.667 2.947 5.667 6.6v1.933h-2.773c-0.747 0-1.427 0.293-1.92 0.8z"></path>
</symbol>
<symbol id="icon-safe_lock" viewBox="0 0 34 32">
<path fill="none" stroke="#8e8e8e" style="stroke: var(--color7, #8e8e8e)" stroke-linejoin="round" stroke-linecap="round" stroke-miterlimit="4" stroke-width="2" d="M9 13.333v-2.667c0-4.413 1.333-8 8-8s8 3.587 8 8v2.667"></path>
<path fill="none" stroke="#8e8e8e" style="stroke: var(--color7, #8e8e8e)" stroke-linejoin="round" stroke-linecap="round" stroke-miterlimit="4" stroke-width="2" d="M23.666 29.333h-13.333c-5.333 0-6.667-1.333-6.667-6.667v-2.667c0-5.333 1.333-6.667 6.667-6.667h13.333c5.333 0 6.667 1.333 6.667 6.667v2.667c0 5.333-1.333 6.667-6.667 6.667z"></path>
<path fill="none" stroke="#8e8e8e" style="stroke: var(--color7, #8e8e8e)" stroke-linejoin="round" stroke-linecap="round" stroke-miterlimit="4" stroke-width="2" d="M22.329 21.333h0.012"></path>
<path fill="none" stroke="#8e8e8e" style="stroke: var(--color7, #8e8e8e)" stroke-linejoin="round" stroke-linecap="round" stroke-miterlimit="4" stroke-width="2" d="M16.993 21.333h0.012"></path>
<path fill="none" stroke="#8e8e8e" style="stroke: var(--color7, #8e8e8e)" stroke-linejoin="round" stroke-linecap="round" stroke-miterlimit="4" stroke-width="2" d="M11.659 21.333h0.012"></path>
</symbol>
<symbol id="icon-gift" viewBox="0 0 32 32">
<path stroke-linejoin="round" stroke-linecap="round" stroke-miterlimit="10" stroke-width="1.3333" d="M26.626 13.333h-21.333v10.667c0 4 1.333 5.333 5.333 5.333h10.667c4 0 5.333-1.333 5.333-5.333v-10.667z"></path>
<path stroke-linejoin="round" stroke-linecap="round" stroke-miterlimit="10" stroke-width="1.3333" d="M28.667 9.333v1.333c0 1.467-0.707 2.667-2.667 2.667h-20c-2.040 0-2.667-1.2-2.667-2.667v-1.333c0-1.467 0.627-2.667 2.667-2.667h20c1.96 0 2.667 1.2 2.667 2.667z"></path>
<path stroke-linejoin="round" stroke-linecap="round" stroke-miterlimit="10" stroke-width="1.3333" d="M15.52 6.667h-7.36c-0.453-0.493-0.44-1.253 0.040-1.733l1.893-1.893c0.493-0.493 1.307-0.493 1.8 0l3.627 3.627z"></path>
<path stroke-linejoin="round" stroke-linecap="round" stroke-miterlimit="10" stroke-width="1.3333" d="M23.826 6.667h-7.36l3.627-3.627c0.493-0.493 1.307-0.493 1.8 0l1.893 1.893c0.48 0.48 0.493 1.24 0.040 1.733z"></path>
<path stroke-linejoin="round" stroke-linecap="round" stroke-miterlimit="10" stroke-width="1.3333" d="M11.921 13.333v6.853c0 1.067 1.173 1.693 2.067 1.12l1.253-0.827c0.453-0.293 1.027-0.293 1.467 0l1.187 0.8c0.88 0.587 2.067-0.040 2.067-1.107v-6.84h-8.040z"></path>
</symbol>
<symbol id="icon-promo_code" viewBox="0 0 32 32">
<path stroke-linejoin="round" stroke-linecap="round" stroke-miterlimit="4" stroke-width="1.3333" d="M5.873 20.702l6.040 6.040c2.48 2.48 6.507 2.48 9 0l5.853-5.853c2.48-2.48 2.48-6.507 0-9l-6.053-6.027c-1.267-1.267-3.013-1.947-4.8-1.853l-6.667 0.32c-2.667 0.12-4.787 2.24-4.92 4.893l-0.32 6.667c-0.080 1.8 0.6 3.547 1.867 4.813z"></path>
<path stroke-linejoin="miter" stroke-linecap="round" stroke-miterlimit="4" stroke-width="1.3333" d="M12.979 16.302c1.841 0 3.333-1.492 3.333-3.333s-1.492-3.333-3.333-3.333-3.333 1.492-3.333 3.333c0 1.841 1.492 3.333 3.333 3.333z"></path>
<path stroke-linejoin="round" stroke-linecap="round" stroke-miterlimit="10" stroke-width="1.3333" d="M17.646 22.968l5.333-5.333"></path>
</symbol>
<symbol id="icon-wallet" viewBox="0 0 33 32">
<path stroke-linejoin="round" stroke-linecap="round" stroke-miterlimit="4" stroke-width="1.2549" d="M21.647 10.667v-4.666c0-1.109 0-1.663-0.234-2.004-0.204-0.298-0.52-0.5-0.876-0.561-0.407-0.069-0.911 0.163-1.918 0.628l-11.827 5.459c-0.898 0.414-1.347 0.622-1.676 0.943-0.291 0.284-0.513 0.631-0.649 1.014-0.154 0.433-0.154 0.928-0.154 1.917v6.603M22.314 19.333h0.013M4.314 14.933v8.8c0 1.494 0 2.24 0.291 2.811 0.256 0.502 0.664 0.91 1.165 1.165 0.57 0.291 1.317 0.291 2.811 0.291h15.467c1.493 0 2.24 0 2.811-0.291 0.502-0.256 0.91-0.664 1.165-1.165 0.291-0.57 0.291-1.317 0.291-2.811v-8.8c0-1.493 0-2.24-0.291-2.811-0.256-0.502-0.664-0.91-1.165-1.165-0.57-0.291-1.317-0.291-2.811-0.291h-15.467c-1.493 0-2.24 0-2.811 0.291-0.502 0.256-0.91 0.664-1.165 1.165-0.291 0.57-0.291 1.317-0.291 2.811zM22.98 19.333c0 0.368-0.298 0.667-0.667 0.667s-0.667-0.298-0.667-0.667c0-0.368 0.298-0.667 0.667-0.667s0.667 0.298 0.667 0.667z"></path>
</symbol>
<symbol id="icon-package" viewBox="0 0 32 32">
<path stroke-linejoin="round" stroke-linecap="round" stroke-miterlimit="4" stroke-width="1.2549" d="M27.333 9.704l-11.333 6.296M16 16l-11.333-6.296M16 16l0 12.667M28 21.411v-10.823c0-0.457 0-0.685-0.067-0.889-0.060-0.18-0.157-0.346-0.285-0.485-0.145-0.158-0.345-0.269-0.744-0.491l-9.867-5.481c-0.378-0.21-0.567-0.315-0.767-0.356-0.177-0.036-0.36-0.036-0.537 0-0.2 0.041-0.389 0.146-0.767 0.356l-9.867 5.481c-0.399 0.222-0.599 0.333-0.744 0.491-0.129 0.14-0.226 0.305-0.286 0.485-0.067 0.204-0.067 0.432-0.067 0.889v10.823c0 0.457 0 0.685 0.067 0.889 0.060 0.18 0.157 0.346 0.286 0.485 0.145 0.158 0.345 0.269 0.744 0.491l9.867 5.481c0.378 0.21 0.567 0.315 0.767 0.356 0.177 0.036 0.36 0.036 0.537 0 0.2-0.041 0.389-0.146 0.767-0.356l9.867-5.481c0.399-0.222 0.599-0.333 0.744-0.491 0.129-0.14 0.226-0.305 0.285-0.485 0.067-0.204 0.067-0.432 0.067-0.889z"></path>
<path stroke-linejoin="round" stroke-linecap="round" stroke-miterlimit="4" stroke-width="1.2549" d="M22 12.667l-12-6.667"></path>
</symbol>
<symbol id="icon-star" viewBox="0 0 32 32">
<path stroke-linejoin="round" stroke-linecap="round" stroke-miterlimit="4" stroke-width="1.2549" d="M29.333 16h-2.667M25.428 25.428l-1.886-1.886M5.333 16h-2.667M8.457 8.458l-1.886-1.886M16 5.333v-2.667M23.542 8.458l1.886-1.886M16 29.333v-2.667M6.572 25.428l1.886-1.886M16 9.333l2.060 4.173 4.607 0.673-3.333 3.247 0.787 4.587-4.12-2.167-4.12 2.167 0.787-4.587-3.333-3.247 4.607-0.673 2.060-4.173z"></path>
</symbol>
<symbol id="icon-align-justify" viewBox="0 0 32 32">
<path stroke-linejoin="round" stroke-linecap="round" stroke-miterlimit="4" stroke-width="2.6667" d="M28 13.333h-24M28 24h-24M28 8h-24M28 18.667h-24"></path>
</symbol>
<symbol id="icon-dots-grid" viewBox="0 0 32 32">
<path stroke-linejoin="round" stroke-linecap="round" stroke-miterlimit="4" stroke-width="2.6667" d="M16 8c0.736 0 1.333-0.597 1.333-1.333s-0.597-1.333-1.333-1.333c-0.736 0-1.333 0.597-1.333 1.333s0.597 1.333 1.333 1.333z"></path>
<path stroke-linejoin="round" stroke-linecap="round" stroke-miterlimit="4" stroke-width="2.6667" d="M16 17.333c0.736 0 1.333-0.597 1.333-1.333s-0.597-1.333-1.333-1.333c-0.736 0-1.333 0.597-1.333 1.333s0.597 1.333 1.333 1.333z"></path>
<path stroke-linejoin="round" stroke-linecap="round" stroke-miterlimit="4" stroke-width="2.6667" d="M16 26.667c0.736 0 1.333-0.597 1.333-1.333s-0.597-1.333-1.333-1.333c-0.736 0-1.333 0.597-1.333 1.333s0.597 1.333 1.333 1.333z"></path>
<path stroke-linejoin="round" stroke-linecap="round" stroke-miterlimit="4" stroke-width="2.6667" d="M25.333 8c0.736 0 1.333-0.597 1.333-1.333s-0.597-1.333-1.333-1.333c-0.736 0-1.333 0.597-1.333 1.333s0.597 1.333 1.333 1.333z"></path>
<path stroke-linejoin="round" stroke-linecap="round" stroke-miterlimit="4" stroke-width="2.6667" d="M25.333 17.333c0.736 0 1.333-0.597 1.333-1.333s-0.597-1.333-1.333-1.333c-0.736 0-1.333 0.597-1.333 1.333s0.597 1.333 1.333 1.333z"></path>
<path stroke-linejoin="round" stroke-linecap="round" stroke-miterlimit="4" stroke-width="2.6667" d="M25.333 26.667c0.736 0 1.333-0.597 1.333-1.333s-0.597-1.333-1.333-1.333c-0.736 0-1.333 0.597-1.333 1.333s0.597 1.333 1.333 1.333z"></path>
<path stroke-linejoin="round" stroke-linecap="round" stroke-miterlimit="4" stroke-width="2.6667" d="M6.667 8c0.736 0 1.333-0.597 1.333-1.333s-0.597-1.333-1.333-1.333c-0.736 0-1.333 0.597-1.333 1.333s0.597 1.333 1.333 1.333z"></path>
<path stroke-linejoin="round" stroke-linecap="round" stroke-miterlimit="4" stroke-width="2.6667" d="M6.667 17.333c0.736 0 1.333-0.597 1.333-1.333s-0.597-1.333-1.333-1.333c-0.736 0-1.333 0.597-1.333 1.333s0.597 1.333 1.333 1.333z"></path>
<path stroke-linejoin="round" stroke-linecap="round" stroke-miterlimit="4" stroke-width="2.6667" d="M6.667 26.667c0.736 0 1.333-0.597 1.333-1.333s-0.597-1.333-1.333-1.333c-0.736 0-1.333 0.597-1.333 1.333s0.597 1.333 1.333 1.333z"></path>
</symbol>
<symbol id="icon-delivery_car" viewBox="0 0 32 32">
<path stroke-linejoin="round" stroke-linecap="round" stroke-miterlimit="4" stroke-width="2" d="M11 25c0 0.53-0.211 1.039-0.586 1.414s-0.884 0.586-1.414 0.586-1.039-0.211-1.414-0.586c-0.375-0.375-0.586-0.884-0.586-1.414M11 25c0-0.53-0.211-1.039-0.586-1.414s-0.884-0.586-1.414-0.586c-0.53 0-1.039 0.211-1.414 0.586s-0.586 0.884-0.586 1.414M11 25h8M7 25h-2.5c-0.398 0-0.779-0.158-1.061-0.439s-0.439-0.663-0.439-1.061v-4.5M19 25h3M19 25v-6M3 19v-10.18c-0.002-0.365 0.131-0.718 0.374-0.99s0.579-0.445 0.942-0.484c4.444-0.461 8.924-0.461 13.368 0 0.753 0.077 1.316 0.717 1.316 1.475v1.277M3 19h16M26 25c0 0.53-0.211 1.039-0.586 1.414s-0.884 0.586-1.414 0.586-1.039-0.211-1.414-0.586c-0.375-0.375-0.586-0.884-0.586-1.414M26 25c0-0.53-0.211-1.039-0.586-1.414s-0.884-0.586-1.414-0.586c-0.53 0-1.039 0.211-1.414 0.586s-0.586 0.884-0.586 1.414M26 25h1.5c0.828 0 1.505-0.672 1.453-1.499-0.268-4.403-1.751-8.646-4.284-12.257-0.241-0.338-0.556-0.617-0.921-0.816s-0.77-0.312-1.185-0.331h-3.563M19 10.097v8.903"></path>
</symbol>
<symbol id="icon-coins-hand" viewBox="0 0 32 32">
<path fill="none" stroke="#aac4ff" style="stroke: var(--color8, #aac4ff)" stroke-linejoin="round" stroke-linecap="round" stroke-miterlimit="4" stroke-width="2.6667" d="M18.039 11.136c-0.763 0.544-1.697 0.864-2.706 0.864-2.577 0-4.667-2.089-4.667-4.667s2.089-4.667 4.667-4.667c1.671 0 3.136 0.878 3.961 2.198M8 26.783h3.48c0.454 0 0.905 0.054 1.345 0.162l3.677 0.894c0.798 0.194 1.629 0.213 2.435 0.057l4.066-0.791c1.074-0.209 2.062-0.724 2.836-1.477l2.877-2.798c0.821-0.798 0.821-2.092 0-2.891-0.74-0.72-1.911-0.801-2.748-0.19l-3.353 2.446c-0.48 0.351-1.064 0.54-1.665 0.54h-1.177c1.161 0 2.102-0.915 2.102-2.045v-0.409c0-0.938-0.656-1.756-1.592-1.983l-3.181-0.774c-0.518-0.125-1.048-0.189-1.581-0.189-1.286 0-3.615 1.065-3.615 1.065l-3.909 1.635M26.667 8.667c0 2.577-2.089 4.667-4.667 4.667s-4.667-2.089-4.667-4.667c0-2.577 2.089-4.667 4.667-4.667s4.667 2.089 4.667 4.667zM2.667 19.467v7.733c0 0.747 0 1.12 0.145 1.405 0.128 0.251 0.332 0.455 0.583 0.583 0.285 0.145 0.659 0.145 1.405 0.145h1.067c0.747 0 1.12 0 1.405-0.145 0.251-0.128 0.455-0.332 0.583-0.583 0.145-0.285 0.145-0.659 0.145-1.405v-7.733c0-0.747 0-1.12-0.145-1.405-0.128-0.251-0.332-0.455-0.583-0.583-0.285-0.145-0.659-0.145-1.405-0.145h-1.067c-0.747 0-1.12 0-1.405 0.145-0.251 0.128-0.455 0.332-0.583 0.583-0.145 0.285-0.145 0.659-0.145 1.405z"></path>
</symbol>
<symbol id="icon-Facebook" viewBox="0 0 32 32">
<path fill="#fefefe" style="fill: var(--color9, #fefefe)" d="M29.095 15.891c-0 6.686-5 12.316-11.64 13.107v-8.933h2.347c0.329 0.002 0.606-0.246 0.64-0.573l0.253-1.933c0.018-0.184-0.040-0.366-0.16-0.507-0.123-0.145-0.303-0.228-0.493-0.227h-2.587v-2.267c0-0.736 0.597-1.333 1.333-1.333h1.333c0.172 0.004 0.338-0.062 0.461-0.183s0.192-0.285 0.192-0.457v-2.147c-0.004-0.334-0.255-0.613-0.587-0.653 0 0-0.96-0.080-2.107-0.080-2.853 0-4.427 1.693-4.427 4.773v2.347h-2.667c-0.361 0-0.653 0.293-0.653 0.653v1.933c0 0.361 0.292 0.653 0.653 0.653h2.587v8.827c-6.891-1.222-11.635-7.605-10.816-14.556s6.915-12.058 13.902-11.645c6.987 0.413 12.44 6.202 12.434 13.201z"></path>
</symbol>
<symbol id="icon-Instagram" viewBox="0 0 32 32">
<path fill="#fefefe" style="fill: var(--color9, #fefefe)" d="M15.787 12.067c-2.062 0-3.733 1.671-3.733 3.733s1.671 3.733 3.733 3.733c2.062 0 3.733-1.671 3.733-3.733 0.004-0.991-0.389-1.943-1.090-2.644s-1.652-1.093-2.644-1.090z"></path>
<path fill="#fefefe" style="fill: var(--color9, #fefefe)" d="M20.92 2.667h-10.253c-4.418 0-8 3.582-8 8v10.253c0 4.418 3.582 8 8 8h10.253c4.418 0 8-3.582 8-8v-10.253c0-4.418-3.582-8-8-8zM15.787 21.52c-3.156-0.007-5.713-2.564-5.72-5.72-0.005-2.321 1.39-4.417 3.533-5.308s4.613-0.401 6.254 1.24 2.131 4.111 1.24 6.254c-0.891 2.144-2.986 3.539-5.308 3.533zM20.767 9.216c0.228 0.544 0.763 0.896 1.353 0.891 0.795 0 1.44-0.645 1.44-1.44 0.005-0.59-0.347-1.125-0.891-1.353s-1.173-0.105-1.59 0.313c-0.417 0.417-0.541 1.046-0.313 1.59z"></path>
</symbol>
<symbol id="icon-phone" viewBox="0 0 32 32">
<path stroke-linejoin="round" stroke-linecap="round" stroke-miterlimit="4" stroke-width="2" d="M11.174 11.804c0.928 1.933 2.193 3.744 3.795 5.347s3.414 2.867 5.346 3.795c0.166 0.080 0.249 0.12 0.355 0.15 0.374 0.109 0.833 0.031 1.149-0.196 0.089-0.064 0.165-0.14 0.318-0.292 0.466-0.466 0.699-0.699 0.934-0.852 0.884-0.575 2.023-0.575 2.907 0 0.234 0.152 0.467 0.386 0.934 0.852l0.26 0.26c0.709 0.709 1.063 1.063 1.255 1.443 0.383 0.757 0.383 1.651 0 2.407-0.192 0.381-0.547 0.735-1.255 1.443l-0.21 0.21c-0.706 0.706-1.059 1.059-1.539 1.329-0.533 0.299-1.36 0.514-1.971 0.513-0.551-0.002-0.927-0.108-1.68-0.322-4.044-1.148-7.861-3.314-11.045-6.498s-5.35-7-6.498-11.045c-0.214-0.753-0.32-1.129-0.322-1.679-0.002-0.611 0.213-1.438 0.513-1.971 0.27-0.48 0.623-0.833 1.329-1.539l0.21-0.21c0.709-0.709 1.063-1.063 1.443-1.255 0.757-0.383 1.65-0.383 2.407 0 0.381 0.192 0.735 0.547 1.443 1.255l0.26 0.26c0.466 0.466 0.699 0.699 0.852 0.934 0.575 0.884 0.575 2.023 0 2.907-0.152 0.234-0.386 0.467-0.852 0.934-0.152 0.152-0.229 0.229-0.292 0.318-0.227 0.316-0.305 0.776-0.196 1.149 0.031 0.105 0.071 0.188 0.15 0.354z"></path>
</symbol>
<symbol id="icon-user" viewBox="0 0 32 32">
<path stroke-linejoin="round" stroke-linecap="round" stroke-miterlimit="4" stroke-width="2" d="M16 20c-4.227 0-7.986 2.041-10.379 5.208-0.515 0.682-0.773 1.022-0.764 1.483 0.006 0.356 0.23 0.805 0.51 1.025 0.362 0.284 0.865 0.284 1.869 0.284h17.527c1.005 0 1.507 0 1.869-0.284 0.28-0.22 0.503-0.669 0.51-1.025 0.008-0.461-0.249-0.801-0.764-1.483-2.393-3.167-6.152-5.208-10.379-5.208z"></path>
<path stroke-linejoin="round" stroke-linecap="round" stroke-miterlimit="4" stroke-width="2" d="M16 16c3.314 0 6-2.686 6-6s-2.686-6-6-6c-3.314 0-6 2.686-6 6s2.686 6 6 6z"></path>
</symbol>
<symbol id="icon-cart" viewBox="0 0 32 32">
<path fill="none" stroke="#fefefe" style="stroke: var(--color9, #fefefe)" stroke-linejoin="round" stroke-linecap="round" stroke-miterlimit="4" stroke-width="1.7" d="M2.667 2.667h1.742c0.328 0 0.492 0 0.624 0.060 0.116 0.053 0.215 0.139 0.284 0.246 0.078 0.122 0.102 0.284 0.148 0.609l0.631 4.418M6.096 8l1.403 10.309c0.178 1.308 0.267 1.962 0.58 2.455 0.276 0.434 0.671 0.779 1.138 0.993 0.53 0.244 1.19 0.244 2.51 0.244h11.411c1.257 0 1.885 0 2.399-0.226 0.453-0.199 0.841-0.521 1.122-0.928 0.318-0.462 0.436-1.079 0.671-2.314l1.765-9.265c0.083-0.434 0.124-0.652 0.064-0.822-0.053-0.149-0.156-0.274-0.293-0.354-0.156-0.091-0.377-0.091-0.819-0.091h-21.949zM13.334 28c0 0.736-0.597 1.333-1.333 1.333s-1.333-0.597-1.333-1.333c0-0.736 0.597-1.333 1.333-1.333s1.333 0.597 1.333 1.333zM24 28c0 0.736-0.597 1.333-1.333 1.333s-1.333-0.597-1.333-1.333c0-0.736 0.597-1.333 1.333-1.333s1.333 0.597 1.333 1.333z"></path>
</symbol>
<symbol id="icon-search" viewBox="0 0 32 32">
<path stroke-linejoin="round" stroke-linecap="round" stroke-miterlimit="4" stroke-width="2.6667" d="M28 28l-8-8M22.667 13.333c0 5.155-4.179 9.333-9.333 9.333s-9.333-4.179-9.333-9.333c0-5.155 4.179-9.333 9.333-9.333s9.333 4.179 9.333 9.333z"></path>
</symbol>
<symbol id="icon-rubiks_cube" viewBox="0 0 32 32">
<path fill="#aac4ff" style="fill: var(--color8, #aac4ff)" opacity="0.969" d="M15.594-0.031c-4.302 2.498-8.614 4.988-12.937 7.469-0.302 0.135-0.521 0.354-0.656 0.656-0.042 5.25-0.042 10.5 0 15.75 0.135 0.302 0.354 0.521 0.656 0.656 4.323 2.481 8.636 4.971 12.937 7.469 0.229 0 0.458 0 0.687 0 4.234-2.461 8.484-4.909 12.75-7.344 0.429-0.179 0.731-0.481 0.906-0.906 0.042-5.167 0.042-10.333 0-15.5-0.040-0.163-0.113-0.309-0.219-0.438-4.467-2.635-8.946-5.239-13.438-7.813-0.229 0-0.458 0-0.687 0zM15.906 2.031c1.497 0.853 2.997 1.707 4.5 2.563 0.064 0.031 0.074 0.073 0.031 0.125-1.491 0.87-2.991 1.725-4.5 2.563-1.525-0.84-3.035-1.705-4.531-2.594 1.511-0.877 3.011-1.762 4.5-2.656zM9.406 5.781c1.519 0.885 3.040 1.77 4.563 2.656-1.516 0.878-3.026 1.763-4.531 2.656-1.516-0.909-3.047-1.794-4.594-2.656 1.545-0.856 3.066-1.741 4.563-2.656zM22.344 5.844c0.183-0.003 0.349 0.050 0.5 0.156 1.396 0.813 2.792 1.625 4.187 2.438-1.503 0.897-3.024 1.762-4.562 2.594-1.539-0.832-3.060-1.697-4.563-2.594 1.49-0.856 2.969-1.721 4.437-2.594zM15.844 9.594c0.199 0.037 0.387 0.11 0.563 0.219 1.356 0.803 2.711 1.605 4.063 2.406-1.479 0.865-2.958 1.729-4.438 2.594-1.567-0.813-3.108-1.688-4.625-2.625 1.49-0.856 2.969-1.721 4.437-2.594zM3.844 10.094c1.535 0.887 3.066 1.783 4.594 2.688 0.042 1.75 0.042 3.5 0 5.25-1.516-0.867-3.026-1.742-4.531-2.625-0.063-1.77-0.083-3.541-0.063-5.313zM27.906 10.156c0.083 0.853 0.125 1.728 0.125 2.625-0.010 0.875-0.021 1.75-0.031 2.625-1.5 0.875-3 1.75-4.5 2.625-0.052-1.771-0.042-3.542 0.031-5.312 1.483-0.824 2.941-1.678 4.375-2.563zM10.406 13.906c1.524 0.851 3.034 1.726 4.531 2.625 0.042 1.75 0.042 3.5 0 5.25-1.484-0.862-2.974-1.716-4.469-2.562-0.063-1.77-0.083-3.541-0.063-5.313zM21.406 13.906c0.083 0.853 0.125 1.728 0.125 2.625-0.010 0.875-0.021 1.75-0.031 2.625-1.502 0.887-3.013 1.763-4.531 2.625-0.073-1.75-0.083-3.5-0.031-5.25 1.509-0.853 2.999-1.728 4.469-2.625zM3.844 17.656c1.529 0.858 3.050 1.733 4.563 2.625 0.073 1.771 0.083 3.541 0.031 5.313-1.521-0.896-3.042-1.792-4.563-2.687-0.031-1.75-0.042-3.5-0.031-5.25zM27.969 17.656c0.083 1.761 0.083 3.531 0 5.313-1.489 0.838-2.969 1.693-4.438 2.562-0.073-1.75-0.083-3.5-0.031-5.25 1.5-0.866 2.99-1.741 4.469-2.625zM21.469 21.406c0.083 1.761 0.083 3.531 0 5.313-1.519 0.862-3.029 1.737-4.531 2.625-0.052-1.771-0.042-3.542 0.031-5.313 1.524-0.845 3.024-1.72 4.5-2.625zM10.406 21.469c1.517 0.821 3.017 1.675 4.5 2.562 0.073 1.771 0.083 3.541 0.031 5.313-1.49-0.891-2.99-1.766-4.5-2.625-0.031-1.75-0.042-3.5-0.031-5.25z"></path>
</symbol>
<symbol id="icon-mechanical" viewBox="0 0 32 32">
<path fill="#aac4ff" style="fill: var(--color8, #aac4ff)" d="M13.333 26.667h5.333v-5.333h-5.333v5.333zM5.333 18.667h5.333v-5.333h-5.333v5.333zM13.333 18.667h5.333v-5.333h-5.333v5.333zM21.333 18.667h5.333v-5.333h-5.333v5.333zM21.333 10.667h5.333v-5.333h-5.333v5.333zM10.667 29.333v-8h-8v-10.667h16v-8h10.667v18.667h-8v8h-10.667z"></path>
</symbol>
<symbol id="icon-magnetic" viewBox="0 0 32 32">
<path fill="#aac4ff" style="fill: var(--color8, #aac4ff)" opacity="0.957" d="M22.25 0c0.229 0 0.458 0 0.687 0 0.6 0.308 0.777 0.788 0.531 1.438-0.118 0.18-0.274 0.316-0.469 0.406-0.737 0.263-1.466 0.544-2.187 0.844 0.499 0.53 1.009 1.051 1.531 1.563 0.369 0.624 0.255 1.134-0.344 1.531-1.381 0.464-2.777 0.87-4.187 1.219-0.854-0.123-1.135-0.603-0.844-1.438 0.138-0.159 0.294-0.294 0.469-0.406 0.757-0.22 1.507-0.46 2.25-0.719-0.522-0.532-1.032-1.074-1.531-1.625-0.279-0.681-0.081-1.171 0.594-1.469 1.185-0.419 2.352-0.867 3.5-1.344z"></path>
<path fill="#aac4ff" style="fill: var(--color8, #aac4ff)" opacity="0.957" d="M30.313 0c0.25 0 0.5 0 0.75 0 0.625 0.387 0.761 0.908 0.406 1.563-0.108 0.132-0.244 0.226-0.406 0.281-0.737 0.263-1.466 0.544-2.188 0.844 0.52 0.551 1.051 1.093 1.594 1.625 0.309 0.617 0.174 1.107-0.406 1.469-1.373 0.458-2.758 0.864-4.156 1.219-0.6-0.027-0.923-0.339-0.969-0.938-0.001-0.446 0.207-0.748 0.625-0.906 0.761-0.226 1.511-0.476 2.25-0.75-0.511-0.51-1.021-1.021-1.531-1.531-0.348-0.701-0.171-1.212 0.531-1.531 1.185-0.419 2.352-0.867 3.5-1.344z"></path>
<path fill="#aac4ff" style="fill: var(--color8, #aac4ff)" opacity="0.957" d="M13.25 32c2.377-0.282 4.502-1.168 6.375-2.656 2.55-2.488 5.082-4.998 7.594-7.531 0.204-0.394 0.204-0.79 0-1.187-1.281-1.281-2.563-2.563-3.844-3.844-0.45-0.286-0.888-0.265-1.312 0.063-2.188 2.187-4.375 4.375-6.563 6.563-0.312 0.24-0.646 0.448-1 0.625-2.237 0.881-4.185 0.454-5.844-1.281-1.576-2.2-1.534-4.366 0.125-6.5 2.146-2.146 4.292-4.292 6.438-6.438 0.208-0.396 0.208-0.792 0-1.188-1.281-1.281-2.563-2.563-3.844-3.844-0.396-0.208-0.792-0.208-1.188 0-2.554 2.533-5.085 5.085-7.594 7.656-1.452 1.863-2.317 3.967-2.594 6.313 0 0.833 0 1.667 0 2.5 0.2 1.526 0.647 2.985 1.344 4.375 2.088 3.701 5.244 5.826 9.469 6.375 0.813 0 1.625 0 2.438 0zM10.75 6.938c0.779 0.748 1.55 1.508 2.313 2.281-0.448 0.448-0.896 0.896-1.344 1.344-0.76-0.76-1.521-1.521-2.281-2.281 0.45-0.44 0.888-0.888 1.313-1.344zM8 9.688c0.808 0.704 1.579 1.454 2.313 2.25-0.999 1.030-2.010 2.051-3.031 3.063-1.773 2.184-2.169 4.601-1.188 7.25 1.267 2.645 3.371 4.041 6.313 4.187 1.595-0.018 3.022-0.507 4.281-1.469 1.135-1.082 2.259-2.176 3.375-3.281 0.771 0.729 1.521 1.479 2.25 2.25-1.261 1.313-2.553 2.595-3.875 3.844-3.295 2.509-6.858 2.968-10.687 1.375-3.721-1.919-5.68-4.981-5.875-9.187 0.067-2.369 0.828-4.484 2.281-6.344 1.271-1.323 2.553-2.636 3.844-3.938zM22.75 18.937c0.779 0.748 1.55 1.508 2.313 2.281-0.448 0.448-0.896 0.896-1.344 1.344-0.761-0.761-1.521-1.521-2.281-2.281 0.45-0.44 0.888-0.888 1.313-1.344z"></path>
<path fill="#aac4ff" style="fill: var(--color8, #aac4ff)" opacity="0.957" d="M32 9c0 0.25 0 0.5 0 0.75-0.11 0.187-0.255 0.343-0.437 0.469-0.774 0.296-1.545 0.598-2.313 0.906 0.499 0.53 1.009 1.051 1.531 1.563 0.341 0.554 0.268 1.043-0.219 1.469-1.419 0.497-2.856 0.924-4.313 1.281-0.89-0.156-1.151-0.656-0.781-1.5 0.094-0.094 0.187-0.187 0.281-0.281 0.799-0.242 1.591-0.503 2.375-0.781-0.457-0.489-0.926-0.968-1.406-1.438-0.385-0.514-0.354-1.004 0.094-1.469 1.282-0.524 2.573-1.024 3.875-1.5 0.58-0.144 1.017 0.033 1.313 0.531z"></path>
</symbol>
<symbol id="icon-labyrinths" viewBox="0 0 32 32">
<path fill="#aac4ff" style="fill: var(--color8, #aac4ff)" opacity="0.987" d="M1.031-0.031c3.188 0 6.375 0 9.563 0 0.926 0.431 1.228 1.14 0.906 2.125-0.173 0.332-0.433 0.571-0.781 0.719-2.601 0.092-5.205 0.124-7.813 0.094 0 3.854 0 7.708 0 11.563 6.438 0 12.875 0 19.313 0-0.030-2.669 0.002-5.336 0.094-8 0.357-0.861 0.992-1.184 1.906-0.969 0.527 0.215 0.85 0.6 0.969 1.156 0.042 5.771 0.042 11.542 0 17.313-0.3 0.989-0.957 1.374-1.969 1.156-0.454-0.183-0.756-0.506-0.906-0.969-0.092-2.227-0.123-4.456-0.094-6.687-1.583 0-3.167 0-4.75 0 0.010 2.146 0 4.292-0.031 6.437-0.090 0.59-0.413 0.996-0.969 1.219-3.351 0.103-6.706 0.124-10.063 0.062-1.046-0.331-1.41-1.028-1.094-2.094 0.276-0.508 0.703-0.789 1.281-0.844 2.625-0.031 5.25-0.042 7.875-0.031 0-1.583 0-3.167 0-4.75-3.854 0-7.708 0-11.563 0 0 3.854 0 7.708 0 11.562 4.458-0.010 8.917 0 13.375 0.031 1.136 0.448 1.438 1.229 0.906 2.344-0.228 0.243-0.489 0.431-0.781 0.563-5.125 0-10.25 0-15.375 0-0.213-0.096-0.421-0.211-0.625-0.344-0.188-0.22-0.333-0.459-0.438-0.719 0-9.958 0-19.917 0-29.875 0.096-0.213 0.211-0.421 0.344-0.625 0.22-0.188 0.459-0.333 0.719-0.438z"></path>
<path fill="#aac4ff" style="fill: var(--color8, #aac4ff)" opacity="0.987" d="M15.531-0.031c5.125 0 10.25 0 15.375 0 0.213 0.096 0.421 0.211 0.625 0.344 0.188 0.22 0.333 0.459 0.438 0.719 0 9.958 0 19.917 0 29.875-0.096 0.213-0.211 0.421-0.344 0.625-0.22 0.188-0.459 0.333-0.719 0.438-3.187 0-6.375 0-9.563 0-1.013-0.507-1.273-1.278-0.781-2.313 0.237-0.301 0.539-0.498 0.906-0.594 2.521-0.031 5.041-0.042 7.562-0.031 0-8.708 0-17.417 0-26.125-3.854 0-7.708 0-11.562 0 0.010 2.146 0 4.292-0.031 6.438-0.089 0.567-0.391 0.974-0.906 1.219-3.205 0.103-6.413 0.124-9.625 0.063-0.9-0.289-1.265-0.903-1.094-1.844 0.156-0.531 0.5-0.875 1.031-1.031 2.542-0.031 5.083-0.042 7.625-0.031-0.011-2.167 0-4.333 0.031-6.5 0.109-0.618 0.452-1.035 1.031-1.25z"></path>
</symbol>
<symbol id="icon-lock" viewBox="0 0 32 32">
<path fill="none" stroke="#aac4ff" style="stroke: var(--color8, #aac4ff)" stroke-linejoin="round" stroke-linecap="round" stroke-miterlimit="4" stroke-width="2.6667" d="M9.468 13.333h-0.135v-2.667c0-3.682 2.985-6.667 6.667-6.667s6.667 2.985 6.667 6.667v2.667h-0.135M16 18.667v2.667M25.333 20c0 5.155-4.179 9.333-9.333 9.333s-9.333-4.179-9.333-9.333c0-5.155 4.179-9.333 9.333-9.333s9.333 4.179 9.333 9.333z"></path>
</symbol>
<symbol id="icon-email" viewBox="0 0 32 32">
<path fill="none" stroke="#aac4ff" style="stroke: var(--color8, #aac4ff)" stroke-linejoin="miter" stroke-linecap="butt" stroke-miterlimit="4" stroke-width="2.6667" d="M8 8h16c1.473 0 2.667 1.194 2.667 2.667v10.667c0 1.473-1.194 2.667-2.667 2.667h-16c-1.473 0-2.667-1.194-2.667-2.667v-10.667c0-1.473 1.194-2.667 2.667-2.667z"></path>
<path fill="none" stroke="#aac4ff" style="stroke: var(--color8, #aac4ff)" stroke-linejoin="miter" stroke-linecap="butt" stroke-miterlimit="4" stroke-width="2.6667" d="M5.333 12l9.474 4.737c0.751 0.375 1.634 0.375 2.385 0l9.474-4.737"></path>
</symbol>
<symbol id="icon-burger_menu" viewBox="0 0 31 32">
<path fill="none" stroke="#fefefe" style="stroke: var(--color9, #fefefe)" stroke-linejoin="round" stroke-linecap="round" stroke-miterlimit="4" stroke-width="2.56" d="M3.84 16h15.36M3.84 8.32h23.040M3.84 23.68h23.040"></path>
</symbol>
<symbol id="icon-travels" viewBox="0 0 32 32">
<path fill="#aac4ff" style="fill: var(--color8, #aac4ff)" d="M5.333 27.667c-0.136 0.009-0.273-0.010-0.401-0.056s-0.246-0.119-0.345-0.213c-0.099-0.094-0.177-0.208-0.23-0.333s-0.079-0.261-0.077-0.398v-18.667c-0-0.202 0.061-0.399 0.175-0.566s0.276-0.295 0.465-0.367l6.813-2.667c0.231-0.093 0.489-0.093 0.72 0l6.36 2.48 7.6-2.493c0.149-0.052 0.307-0.066 0.463-0.043s0.303 0.084 0.43 0.177c0.129 0.092 0.234 0.214 0.306 0.356s0.109 0.298 0.107 0.457v18.667c-0 0.209-0.066 0.413-0.188 0.583s-0.294 0.297-0.492 0.364l-8 2.667c-0.224 0.080-0.469 0.080-0.693 0l-6.267-2.48-6.44 2.467c-0.099 0.036-0.202 0.059-0.307 0.067zM12.133 23.053c0.129-0.001 0.256 0.027 0.373 0.080l6.16 2.467 7.027-2.373v-16.56l-6.667 2.173c-0.221 0.073-0.459 0.073-0.68 0l-6.267-2.44-5.8 2.227v16.587l5.453-2.093c0.111-0.043 0.228-0.065 0.347-0.067h0.053z"></path>
<path fill="#aac4ff" style="fill: var(--color8, #aac4ff)" d="M12.080 25.053c-0.136 0-0.27-0.027-0.395-0.081s-0.238-0.132-0.331-0.231c-0.094-0.099-0.166-0.215-0.213-0.343s-0.068-0.263-0.060-0.399v-18.667c0-0.265 0.105-0.52 0.293-0.707s0.442-0.293 0.707-0.293c0.265 0 0.52 0.105 0.707 0.293s0.293 0.442 0.293 0.707v18.667c0.009 0.136-0.010 0.273-0.056 0.401s-0.119 0.246-0.213 0.345c-0.094 0.099-0.207 0.177-0.333 0.23s-0.261 0.079-0.398 0.077z"></path>
<path fill="#aac4ff" style="fill: var(--color8, #aac4ff)" d="M18.787 27.667c-0.265 0-0.52-0.105-0.707-0.293s-0.293-0.442-0.293-0.707v-18.667c0-0.265 0.105-0.52 0.293-0.707s0.442-0.293 0.707-0.293 0.52 0.105 0.707 0.293c0.188 0.188 0.293 0.442 0.293 0.707v18.667c-0.003 0.264-0.11 0.517-0.297 0.703s-0.439 0.293-0.703 0.297z"></path>
</symbol>
<symbol id="icon-movies" viewBox="0 0 32 32">
<path fill="#aac4ff" style="fill: var(--color8, #aac4ff)" d="M16 19.72c-0.161-0.002-0.321-0.038-0.467-0.107-0.2-0.107-4.867-2.667-5.867-6.013-0.306-0.851-0.413-1.761-0.314-2.66s0.403-1.763 0.887-2.527c0.361-0.474 0.83-0.855 1.368-1.11s1.13-0.377 1.725-0.356c0.5-0.014 0.997 0.080 1.457 0.276s0.873 0.488 1.21 0.857c0.337-0.369 0.75-0.662 1.21-0.857s0.957-0.29 1.457-0.276c0.591-0.017 1.177 0.107 1.711 0.363s0.998 0.634 1.356 1.104c0.485 0.764 0.788 1.628 0.887 2.527s-0.008 1.809-0.314 2.66c-1 3.413-5.667 5.907-5.867 6.013-0.138 0.065-0.288 0.101-0.44 0.107zM13.333 8.947c-0.281-0.021-0.562 0.030-0.818 0.146s-0.479 0.296-0.648 0.521c-0.294 0.516-0.47 1.092-0.513 1.685s0.045 1.188 0.26 1.742c0.56 1.92 3.053 3.733 4.413 4.533 1.333-0.813 3.853-2.667 4.413-4.533 0.215-0.554 0.304-1.149 0.26-1.742s-0.219-1.168-0.513-1.685c-0.223-0.295-0.533-0.512-0.887-0.622s-0.732-0.107-1.083 0.010-0.657 0.339-0.876 0.638c-0.218 0.299-0.337 0.658-0.341 1.028 0 0.265-0.105 0.52-0.293 0.707s-0.442 0.293-0.707 0.293c-0.265 0-0.52-0.105-0.707-0.293s-0.293-0.442-0.293-0.707c0.009-0.224-0.027-0.447-0.107-0.656s-0.201-0.4-0.357-0.561-0.343-0.288-0.549-0.375c-0.207-0.086-0.429-0.13-0.653-0.128z"></path>
<path fill="#aac4ff" style="fill: var(--color8, #aac4ff)" d="M25.013 23.667h-18.027c-1.415 0-2.771-0.562-3.771-1.562s-1.562-2.357-1.562-3.771v-10.013c0-1.414 0.562-2.771 1.562-3.771s2.357-1.562 3.771-1.562h18.027c1.415 0 2.771 0.562 3.771 1.562s1.562 2.357 1.562 3.771v10.027c-0.004 1.412-0.567 2.765-1.567 3.763s-2.354 1.557-3.767 1.557zM6.987 5c-0.879 0.004-1.722 0.354-2.344 0.976s-0.973 1.464-0.976 2.344v10.027c0.003 0.879 0.354 1.722 0.976 2.344s1.464 0.973 2.344 0.976h18.027c0.879-0.003 1.722-0.354 2.344-0.976s0.973-1.464 0.976-2.344v-10.027c-0.003-0.879-0.354-1.722-0.976-2.344s-1.464-0.973-2.344-0.976h-18.027z"></path>
<path fill="#aac4ff" style="fill: var(--color8, #aac4ff)" d="M16 29c-0.264-0.003-0.517-0.11-0.703-0.297s-0.293-0.439-0.297-0.703v-5.333c0-0.265 0.105-0.52 0.293-0.707s0.442-0.293 0.707-0.293 0.52 0.105 0.707 0.293c0.188 0.187 0.293 0.442 0.293 0.707v5.333c-0.003 0.264-0.11 0.517-0.297 0.703s-0.439 0.293-0.703 0.297z"></path>
<path fill="#aac4ff" style="fill: var(--color8, #aac4ff)" d="M24 29h-16c-0.265 0-0.52-0.105-0.707-0.293s-0.293-0.442-0.293-0.707 0.105-0.52 0.293-0.707c0.188-0.188 0.442-0.293 0.707-0.293h16c0.265 0 0.52 0.105 0.707 0.293s0.293 0.442 0.293 0.707-0.105 0.52-0.293 0.707c-0.187 0.188-0.442 0.293-0.707 0.293z"></path>
</symbol>
<symbol id="icon-sport" viewBox="0 0 32 32">
<path fill="#aac4ff" style="fill: var(--color8, #aac4ff)" d="M27.333 30.333h-22.667c-0.265 0-0.52-0.105-0.707-0.293s-0.293-0.442-0.293-0.707 0.105-0.52 0.293-0.707c0.188-0.188 0.442-0.293 0.707-0.293h22.667c0.265 0 0.52 0.105 0.707 0.293s0.293 0.442 0.293 0.707-0.105 0.52-0.293 0.707c-0.187 0.188-0.442 0.293-0.707 0.293z"></path>
<path fill="#aac4ff" style="fill: var(--color8, #aac4ff)" d="M8.667 30.333c-0.264-0.003-0.517-0.11-0.703-0.297s-0.293-0.439-0.297-0.703v-26.667c0.001-0.169 0.045-0.336 0.127-0.484s0.202-0.272 0.346-0.361c0.144-0.089 0.308-0.141 0.477-0.149s0.338 0.026 0.49 0.101l16 8c0.17 0.080 0.313 0.206 0.414 0.364s0.154 0.342 0.154 0.529c0 0.187-0.053 0.371-0.154 0.529s-0.244 0.284-0.414 0.364l-15.44 7.72v10.053c-0.003 0.264-0.11 0.517-0.297 0.703s-0.439 0.293-0.703 0.297zM9.667 4.28v12.773l12.76-6.387-12.76-6.387z"></path>
</symbol>
<symbol id="icon-horror" viewBox="0 0 32 32">
<path fill="#aac4ff" style="fill: var(--color8, #aac4ff)" d="M21.88 24.187c-0.169-0.002-0.336-0.046-0.485-0.127s-0.275-0.198-0.369-0.339c-0.125-0.22-0.162-0.479-0.106-0.726s0.204-0.463 0.412-0.607c1.79-1.152 3.158-2.853 3.901-4.847s0.819-4.176 0.219-6.218c-0.6-2.042-1.846-3.834-3.55-5.11s-3.775-1.964-5.903-1.964-4.199 0.689-5.903 1.964c-1.704 1.275-2.949 3.068-3.55 5.11s-0.523 4.223 0.219 6.218c0.743 1.995 2.111 3.695 3.901 4.847 0.15 0.165 0.241 0.376 0.258 0.599s-0.042 0.445-0.166 0.631c-0.124 0.186-0.307 0.324-0.52 0.394s-0.442 0.066-0.652-0.010c-2.153-1.385-3.8-3.431-4.694-5.83s-0.987-5.024-0.265-7.48 2.22-4.613 4.27-6.148c2.050-1.534 4.542-2.363 7.102-2.363s5.052 0.829 7.102 2.363c2.050 1.534 3.548 3.691 4.27 6.148s0.629 5.081-0.265 7.48c-0.894 2.399-2.541 4.445-4.694 5.83-0.156 0.112-0.341 0.177-0.533 0.187z"></path>
<path fill="#aac4ff" style="fill: var(--color8, #aac4ff)" d="M21.88 29.827h-11.76c-0.265 0-0.52-0.105-0.707-0.293s-0.293-0.442-0.293-0.707v-5.64c0-0.265 0.105-0.519 0.293-0.707s0.442-0.293 0.707-0.293 0.52 0.105 0.707 0.293c0.188 0.188 0.293 0.442 0.293 0.707v4.64h9.76v-4.64c0-0.265 0.105-0.519 0.293-0.707s0.442-0.293 0.707-0.293 0.519 0.105 0.707 0.293c0.187 0.188 0.293 0.442 0.293 0.707v5.64c0 0.265-0.105 0.52-0.293 0.707s-0.442 0.293-0.707 0.293z"></path>
<path fill="#aac4ff" style="fill: var(--color8, #aac4ff)" d="M12.213 19.4c-0.265 0-0.52-0.105-0.707-0.293s-0.293-0.442-0.293-0.707v-4.8c0-0.265 0.105-0.52 0.293-0.707s0.442-0.293 0.707-0.293c0.265 0 0.52 0.105 0.707 0.293s0.293 0.442 0.293 0.707v4.8c-0.003 0.264-0.11 0.517-0.297 0.703s-0.439 0.293-0.703 0.297z"></path>
<path fill="#aac4ff" style="fill: var(--color8, #aac4ff)" d="M19.413 19.4c-0.264-0.003-0.516-0.11-0.703-0.297s-0.293-0.439-0.297-0.703v-4.8c0-0.265 0.105-0.52 0.293-0.707s0.442-0.293 0.707-0.293 0.52 0.105 0.707 0.293c0.187 0.188 0.293 0.442 0.293 0.707v4.8c0 0.265-0.105 0.52-0.293 0.707s-0.442 0.293-0.707 0.293z"></path>
<path fill="#aac4ff" style="fill: var(--color8, #aac4ff)" d="M14.107 29.854c-0.264-0.003-0.517-0.11-0.703-0.297s-0.293-0.439-0.297-0.703v-2.84c0-0.265 0.105-0.52 0.293-0.707s0.442-0.293 0.707-0.293c0.265 0 0.519 0.105 0.707 0.293s0.293 0.442 0.293 0.707v2.84c0 0.265-0.105 0.519-0.293 0.707s-0.442 0.293-0.707 0.293z"></path>
<path fill="#aac4ff" style="fill: var(--color8, #aac4ff)" d="M17.893 29.854c-0.265 0-0.519-0.105-0.707-0.293s-0.293-0.442-0.293-0.707v-2.84c0-0.265 0.105-0.52 0.293-0.707s0.442-0.293 0.707-0.293c0.265 0 0.52 0.105 0.707 0.293s0.293 0.442 0.293 0.707v2.84c-0.003 0.264-0.11 0.516-0.297 0.703s-0.439 0.293-0.703 0.297z"></path>
</symbol>
<symbol id="icon-history" viewBox="0 0 32 32">
<path fill="#aac4ff" style="fill: var(--color8, #aac4ff)" d="M16 24.613c-0.264-0.006-0.516-0.11-0.707-0.293l-7.6-7.613c-0.167-0.182-0.259-0.42-0.259-0.667s0.093-0.485 0.259-0.667l11.187-11.373c0.187-0.188 0.442-0.293 0.707-0.293h7.667c0.263-0 0.515 0.103 0.703 0.288s0.294 0.436 0.297 0.699l0.080 7.573c0 0.269-0.105 0.528-0.293 0.72l-11.347 11.347c-0.186 0.179-0.435 0.28-0.693 0.28zM9.8 16l6.2 6.187 10.347-10.333-0.080-6.16-6.267-0.027-10.2 10.333z"></path>
<path fill="#aac4ff" style="fill: var(--color8, #aac4ff)" d="M19.72 28.333c-0.131 0.001-0.262-0.025-0.383-0.075s-0.231-0.124-0.324-0.218l-15.013-15.053c-0.122-0.188-0.177-0.411-0.157-0.634s0.115-0.433 0.269-0.596c0.154-0.163 0.358-0.27 0.579-0.303s0.448 0.009 0.642 0.12l15.093 15.093c0.187 0.187 0.292 0.442 0.292 0.707s-0.105 0.519-0.292 0.707c-0.095 0.087-0.207 0.154-0.328 0.197s-0.25 0.063-0.379 0.056z"></path>
<path fill="#aac4ff" style="fill: var(--color8, #aac4ff)" d="M9.333 28.253c-0.139 0.014-0.28-0.001-0.414-0.044s-0.256-0.115-0.36-0.209l-4.56-4.6c-0.095-0.097-0.17-0.211-0.22-0.337s-0.075-0.26-0.073-0.396c0-0.547 0-0.56 5.48-5.893 0.191-0.186 0.448-0.288 0.714-0.284s0.52 0.113 0.706 0.304c0.186 0.191 0.288 0.448 0.284 0.714s-0.113 0.52-0.304 0.706c-1.707 1.667-3.573 3.507-4.493 4.453l3.24 3.173 4.413-4.507c0.092-0.094 0.202-0.169 0.323-0.22s0.252-0.078 0.383-0.078 0.262 0.026 0.383 0.078c0.121 0.051 0.231 0.126 0.323 0.22 0.187 0.188 0.292 0.442 0.292 0.707s-0.105 0.519-0.292 0.707l-5.187 5.253c-0.179 0.154-0.404 0.243-0.64 0.253z"></path>
<path fill="#aac4ff" style="fill: var(--color8, #aac4ff)" d="M16 17c-0.131 0.001-0.262-0.025-0.383-0.075s-0.231-0.124-0.324-0.218c-0.187-0.188-0.293-0.442-0.293-0.707s0.105-0.519 0.293-0.707l5.333-5.333c0.091-0.098 0.202-0.177 0.325-0.232s0.255-0.084 0.389-0.086c0.134-0.002 0.268 0.022 0.392 0.073s0.238 0.125 0.333 0.22 0.17 0.208 0.22 0.333c0.050 0.125 0.075 0.258 0.073 0.392s-0.032 0.267-0.086 0.389-0.133 0.233-0.232 0.325l-5.333 5.333c-0.092 0.093-0.202 0.168-0.324 0.218s-0.251 0.076-0.383 0.075z"></path>
</symbol>
<symbol id="icon-space" viewBox="0 0 32 32">
<path fill="#aac4ff" style="fill: var(--color8, #aac4ff)" d="M16.107 20.72c-1.413 0-2.795-0.419-3.97-1.204s-2.091-1.901-2.632-3.207c-0.541-1.306-0.682-2.743-0.407-4.129s0.956-2.66 1.956-3.659c0.999-0.999 2.273-1.68 3.659-1.956s2.823-0.134 4.129 0.407c1.306 0.541 2.422 1.457 3.207 2.632s1.205 2.557 1.205 3.97c0 0.939-0.185 1.868-0.544 2.735s-0.886 1.655-1.549 2.319c-0.664 0.664-1.451 1.19-2.319 1.549s-1.796 0.544-2.735 0.544zM16.107 8.426c-1.018 0-2.013 0.302-2.859 0.867s-1.506 1.369-1.896 2.31-0.491 1.975-0.293 2.974c0.199 0.998 0.689 1.915 1.409 2.635s1.637 1.21 2.635 1.409c0.998 0.199 2.033 0.097 2.974-0.293s1.744-1.049 2.31-1.896c0.566-0.846 0.867-1.841 0.867-2.859 0-1.365-0.542-2.674-1.507-3.639s-2.274-1.507-3.639-1.507z"></path>
<path fill="#aac4ff" style="fill: var(--color8, #aac4ff)" d="M16 25.746c-0.939 0.002-1.869-0.182-2.736-0.541s-1.655-0.887-2.317-1.552c-0.177-0.19-0.273-0.44-0.268-0.699s0.11-0.506 0.293-0.689c0.183-0.183 0.43-0.288 0.689-0.293s0.51 0.092 0.699 0.268c0.988 0.922 2.289 1.435 3.64 1.435s2.652-0.513 3.64-1.435c0.189-0.177 0.44-0.273 0.699-0.268s0.506 0.11 0.689 0.293 0.288 0.43 0.293 0.689c0.005 0.259-0.092 0.51-0.268 0.699-0.662 0.665-1.45 1.193-2.317 1.552s-1.797 0.543-2.736 0.541z"></path>
<path fill="#aac4ff" style="fill: var(--color8, #aac4ff)" d="M16.107 16c1.34 0 2.427-1.087 2.427-2.427s-1.086-2.427-2.427-2.427c-1.34 0-2.427 1.086-2.427 2.427s1.087 2.427 2.427 2.427z"></path>
<path fill="#aac4ff" style="fill: var(--color8, #aac4ff)" d="M26.667 30.213c-0.265 0-0.52-0.105-0.707-0.293s-0.293-0.442-0.293-0.707v-15.88c-0.18-2.416-1.267-4.674-3.043-6.321s-4.108-2.564-6.531-2.564c-2.422 0-4.755 0.916-6.53 2.564s-2.862 3.906-3.043 6.321v15.88c0 0.265-0.105 0.52-0.293 0.707s-0.442 0.293-0.707 0.293-0.52-0.105-0.707-0.293c-0.188-0.187-0.293-0.442-0.293-0.707v-15.88c0.102-3.007 1.368-5.856 3.531-7.947s5.054-3.26 8.062-3.26c3.008 0 5.899 1.169 8.062 3.26s3.429 4.94 3.531 7.947v15.88c-0.002 0.134-0.030 0.267-0.083 0.39s-0.131 0.234-0.227 0.327c-0.097 0.093-0.211 0.166-0.336 0.214s-0.259 0.072-0.393 0.068z"></path>
<path fill="#aac4ff" style="fill: var(--color8, #aac4ff)" d="M26.667 30.213h-21.147c-0.265 0-0.52-0.105-0.707-0.293s-0.293-0.442-0.293-0.707c0-0.265 0.105-0.52 0.293-0.707s0.442-0.293 0.707-0.293h21.147c0.265 0 0.52 0.105 0.707 0.293s0.293 0.442 0.293 0.707-0.105 0.519-0.293 0.707c-0.187 0.188-0.442 0.293-0.707 0.293z"></path>
</symbol>
<symbol id="icon-economical" viewBox="0 0 32 32">
<path fill="#aac4ff" style="fill: var(--color8, #aac4ff)" d="M2.92 20.747c-0.264-0.003-0.517-0.11-0.703-0.297s-0.293-0.439-0.297-0.703v-4.387c0-0.265 0.105-0.52 0.293-0.707s0.442-0.293 0.707-0.293 0.52 0.105 0.707 0.293c0.188 0.187 0.293 0.442 0.293 0.707v4.387c0 0.265-0.105 0.52-0.293 0.707s-0.442 0.293-0.707 0.293z"></path>
<path fill="#aac4ff" style="fill: var(--color8, #aac4ff)" d="M16 22.667c-7.893 0-14.080-3.88-14.080-8.867s6.187-8.88 14.080-8.88c7.893 0 14.067 3.893 14.067 8.88s-6.173 8.867-14.067 8.867zM16 6.92c-6.547 0-12.080 3.147-12.080 6.88s5.533 6.893 12.080 6.893c6.547 0 12.067-3.16 12.067-6.893s-5.52-6.88-12.067-6.88z"></path>
<path fill="#aac4ff" style="fill: var(--color8, #aac4ff)" d="M16 27.093c-7.88 0-14.067-3.907-14.067-8.893 0-0.265 0.105-0.52 0.293-0.707s0.442-0.293 0.707-0.293 0.52 0.105 0.707 0.293c0.188 0.187 0.293 0.442 0.293 0.707 0 3.733 5.533 6.893 12.067 6.893s11.92-3.027 12.093-6.733v-0.16c0-0.265 0.105-0.52 0.293-0.707s0.442-0.293 0.707-0.293c0.265 0 0.519 0.105 0.707 0.293s0.293 0.442 0.293 0.707v0.213c-0.24 4.88-6.413 8.68-14.093 8.68z"></path>
<path fill="#aac4ff" style="fill: var(--color8, #aac4ff)" d="M29.067 19.413c-0.264-0.003-0.516-0.11-0.703-0.297s-0.293-0.439-0.297-0.703v-4.613c0-0.265 0.105-0.52 0.293-0.707s0.442-0.293 0.707-0.293c0.265 0 0.52 0.105 0.707 0.293s0.293 0.442 0.293 0.707v4.613c0 0.131-0.026 0.261-0.076 0.383s-0.124 0.232-0.217 0.324c-0.093 0.093-0.203 0.167-0.325 0.217s-0.251 0.076-0.383 0.076z"></path>
</symbol>
<symbol id="icon-humor" viewBox="0 0 32 32">
<path fill="#aac4ff" style="fill: var(--color8, #aac4ff)" d="M23.547 29.333h-15.093c-1.46 0-2.861-0.58-3.894-1.613s-1.613-2.433-1.613-3.894v-15.12c0-1.46 0.58-2.861 1.613-3.894s2.433-1.613 3.894-1.613h15.093c1.46 0 2.861 0.58 3.894 1.613s1.613 2.433 1.613 3.894v15.093c0.003 0.725-0.136 1.444-0.412 2.115s-0.68 1.281-1.192 1.796-1.12 0.922-1.79 1.201c-0.67 0.278-1.388 0.422-2.113 0.422zM8.453 5.2c-0.93 0-1.822 0.369-2.48 1.027s-1.027 1.55-1.027 2.48v15.093c0 0.93 0.369 1.822 1.027 2.48s1.55 1.027 2.48 1.027h15.093c0.93 0 1.822-0.369 2.48-1.027s1.027-1.55 1.027-2.48v-15.093c0-0.46-0.091-0.917-0.267-1.342s-0.435-0.812-0.76-1.138c-0.326-0.326-0.712-0.584-1.138-0.76s-0.881-0.267-1.342-0.267h-15.093z"></path>
<path fill="#aac4ff" style="fill: var(--color8, #aac4ff)" d="M24.173 16.187c-0.264-0.003-0.516-0.11-0.703-0.297s-0.293-0.439-0.297-0.703c-0.040-0.47-0.254-0.907-0.601-1.226s-0.801-0.496-1.272-0.496c-0.471 0-0.925 0.177-1.272 0.496s-0.561 0.756-0.601 1.226c0 0.265-0.105 0.52-0.293 0.707s-0.442 0.293-0.707 0.293c-0.265 0-0.519-0.105-0.707-0.293s-0.293-0.442-0.293-0.707c0.058-0.988 0.491-1.916 1.211-2.595s1.672-1.057 2.662-1.057c0.99 0 1.942 0.378 2.662 1.057s1.153 1.607 1.211 2.595c-0.003 0.264-0.11 0.516-0.297 0.703s-0.439 0.293-0.703 0.297z"></path>
<path fill="#aac4ff" style="fill: var(--color8, #aac4ff)" d="M13.787 16.186c-0.264-0.003-0.516-0.11-0.703-0.297s-0.293-0.439-0.297-0.703c0-0.495-0.197-0.97-0.547-1.32s-0.825-0.547-1.32-0.547-0.97 0.197-1.32 0.547c-0.35 0.35-0.547 0.825-0.547 1.32 0 0.265-0.105 0.52-0.293 0.707s-0.442 0.293-0.707 0.293-0.52-0.105-0.707-0.293c-0.188-0.188-0.293-0.442-0.293-0.707 0-1.025 0.407-2.009 1.133-2.734s1.709-1.133 2.734-1.133c1.025 0 2.009 0.407 2.734 1.133s1.133 1.709 1.133 2.734c0 0.265-0.105 0.52-0.293 0.707s-0.442 0.293-0.707 0.293z"></path>
<path fill="#aac4ff" style="fill: var(--color8, #aac4ff)" d="M21.333 23.493h-10.413c-0.265 0-0.52-0.105-0.707-0.293s-0.293-0.442-0.293-0.707 0.105-0.52 0.293-0.707c0.188-0.188 0.442-0.293 0.707-0.293h10.413c0.265 0 0.52 0.105 0.707 0.293s0.293 0.442 0.293 0.707-0.105 0.52-0.293 0.707c-0.188 0.188-0.442 0.293-0.707 0.293z"></path>
</symbol>
<symbol id="icon-sci_fi" viewBox="0 0 32 32">
<path fill="#aac4ff" style="fill: var(--color8, #aac4ff)" d="M15.787 30.026c-2.235 0.021-4.411-0.722-6.166-2.108s-2.983-3.329-3.481-5.508-0.236-4.464 0.743-6.474c0.979-2.010 2.615-3.625 4.638-4.577 0.237-0.1 0.503-0.106 0.743-0.015s0.437 0.27 0.549 0.502c0.112 0.232 0.13 0.497 0.050 0.742s-0.249 0.449-0.476 0.572c-1.593 0.781-2.871 2.084-3.621 3.691s-0.928 3.423-0.504 5.146 1.425 3.248 2.836 4.324c1.411 1.075 3.147 1.636 4.921 1.588s3.477-0.7 4.829-1.85c1.351-1.15 2.269-2.727 2.6-4.47s0.056-3.547-0.779-5.112c-0.835-1.565-2.181-2.797-3.814-3.492-0.134-0.042-0.258-0.111-0.363-0.203s-0.19-0.206-0.249-0.333-0.090-0.266-0.092-0.406c-0.002-0.14 0.026-0.279 0.081-0.408s0.137-0.244 0.24-0.34c0.103-0.095 0.225-0.167 0.358-0.212s0.274-0.061 0.413-0.048 0.275 0.055 0.397 0.124c2.077 0.887 3.785 2.464 4.833 4.465s1.374 4.302 0.92 6.515c-0.453 2.213-1.657 4.201-3.408 5.629s-3.941 2.206-6.199 2.205v0.053z"></path>
<path fill="#aac4ff" style="fill: var(--color8, #aac4ff)" d="M12 13.333c-0.132 0.002-0.263-0.023-0.385-0.072s-0.233-0.123-0.326-0.216c-0.093-0.093-0.167-0.204-0.216-0.326s-0.074-0.253-0.072-0.385v-5.16c0-0.265 0.105-0.52 0.293-0.707s0.442-0.293 0.707-0.293h7.28c0.265 0 0.519 0.105 0.707 0.293s0.293 0.442 0.293 0.707v4.96c0 0.265-0.105 0.52-0.293 0.707s-0.442 0.293-0.707 0.293c-0.265 0-0.52-0.105-0.707-0.293s-0.293-0.442-0.293-0.707v-4h-5.333v4.133c0.009 0.132-0.008 0.265-0.051 0.391s-0.11 0.241-0.198 0.341c-0.088 0.099-0.195 0.18-0.315 0.238s-0.25 0.091-0.382 0.097z"></path>
<path fill="#aac4ff" style="fill: var(--color8, #aac4ff)" d="M14.373 23.68c-2.485-0.011-4.963-0.261-7.4-0.747-0.23-0.040-0.438-0.16-0.589-0.338s-0.235-0.403-0.238-0.636c0.001-0.149 0.035-0.297 0.1-0.432s0.158-0.254 0.274-0.348 0.251-0.162 0.396-0.198c0.145-0.036 0.296-0.039 0.443-0.010 0.493 0.107 12.080 2.467 16.48-2.080 0.189-0.184 0.443-0.287 0.707-0.287s0.517 0.103 0.707 0.287c0.17 0.181 0.264 0.419 0.264 0.667s-0.094 0.486-0.264 0.667v0.067c-2.587 2.693-7.027 3.387-10.88 3.387z"></path>
<path fill="#aac4ff" style="fill: var(--color8, #aac4ff)" d="M18.107 8.173h-4.773c-0.132 0.002-0.263-0.023-0.385-0.072s-0.233-0.123-0.326-0.216c-0.093-0.093-0.167-0.204-0.216-0.326s-0.074-0.253-0.072-0.385v-3.8c0-0.265 0.105-0.52 0.293-0.707s0.442-0.293 0.707-0.293h4.84c0.131 0 0.261 0.026 0.383 0.076s0.232 0.124 0.324 0.217c0.093 0.093 0.167 0.203 0.217 0.324s0.076 0.251 0.076 0.383v3.8c0.002 0.138-0.024 0.274-0.078 0.401s-0.133 0.241-0.234 0.335c-0.101 0.094-0.22 0.166-0.35 0.212s-0.268 0.063-0.405 0.052zM14.267 6.173h2.84v-1.8h-2.84v1.8z"></path>
</symbol>
<symbol id="icon-family" viewBox="0 0 32 32">
<path fill="#aac4ff" style="fill: var(--color8, #aac4ff)" d="M16 23.107c-0.161-0.002-0.32-0.038-0.467-0.107-0.187-0.107-4.72-2.52-5.693-5.84-0.294-0.828-0.397-1.711-0.3-2.585s0.391-1.713 0.86-2.456c0.35-0.462 0.804-0.835 1.325-1.087s1.095-0.378 1.675-0.366c0.487-0.013 0.972 0.079 1.42 0.27s0.851 0.476 1.18 0.836c0.336-0.369 0.749-0.659 1.21-0.85s0.958-0.279 1.457-0.256c0.568-0.002 1.129 0.129 1.638 0.381s0.953 0.619 1.295 1.072c0.469 0.743 0.763 1.582 0.86 2.456s-0.006 1.757-0.3 2.585c-0.973 3.32-5.507 5.733-5.693 5.84-0.146 0.068-0.305 0.105-0.467 0.107zM13.4 12.68c-0.269-0.016-0.538 0.036-0.782 0.15s-0.457 0.287-0.617 0.504c-0.277 0.496-0.442 1.047-0.483 1.613s0.042 1.135 0.243 1.667c0.533 1.84 2.92 3.573 4.24 4.36 1.333-0.787 3.707-2.52 4.24-4.36 0.202-0.531 0.285-1.1 0.243-1.667s-0.206-1.117-0.483-1.613c-0.154-0.207-0.356-0.374-0.588-0.488s-0.487-0.17-0.746-0.166c-0.212-0.002-0.422 0.039-0.617 0.119s-0.374 0.2-0.523 0.35-0.267 0.329-0.346 0.526c-0.079 0.196-0.118 0.407-0.114 0.619 0 0.265-0.105 0.519-0.293 0.707s-0.442 0.293-0.707 0.293-0.52-0.105-0.707-0.293c-0.188-0.188-0.293-0.442-0.293-0.707 0.006-0.218-0.033-0.435-0.116-0.637s-0.206-0.385-0.363-0.536c-0.157-0.152-0.343-0.269-0.548-0.345s-0.423-0.108-0.64-0.095z"></path>
<path fill="#aac4ff" style="fill: var(--color8, #aac4ff)" d="M16 29c-2.571-0.003-5.083-0.767-7.219-2.197s-3.8-3.461-4.782-5.837c-0.982-2.376-1.237-4.989-0.734-7.51s1.742-4.836 3.561-6.653 4.135-3.054 6.656-3.554c2.521-0.501 5.135-0.242 7.509 0.742s4.404 2.651 5.832 4.788c1.428 2.138 2.19 4.651 2.19 7.221-0.003 3.449-1.376 6.756-3.816 9.193s-5.748 3.807-9.197 3.807zM16 5c-2.175 0.003-4.3 0.65-6.108 1.86s-3.215 2.929-4.046 4.939c-0.831 2.010-1.046 4.221-0.62 6.354s1.475 4.092 3.014 5.629c1.539 1.537 3.499 2.583 5.632 3.007s4.345 0.205 6.354-0.628c2.009-0.833 3.726-2.243 4.934-4.051s1.853-3.935 1.853-6.11c-0.003-2.919-1.165-5.716-3.23-7.779s-4.864-3.221-7.783-3.221z"></path>
</symbol>
<symbol id="icon-historical" viewBox="0 0 32 32">
<path fill="#aac4ff" style="fill: var(--color8, #aac4ff)" d="M26.667 30.333c-0.265-0-0.519-0.106-0.707-0.293l-4.627-4.627-4.627 4.627c-0.187 0.187-0.442 0.293-0.707 0.293s-0.519-0.105-0.707-0.293l-4.627-4.627-4.627 4.627c-0.141 0.14-0.32 0.235-0.514 0.273s-0.396 0.017-0.579-0.060c-0.182-0.075-0.338-0.202-0.448-0.366s-0.167-0.357-0.166-0.554v-26.667c0-0.198 0.059-0.391 0.169-0.555s0.266-0.292 0.449-0.368c0.183-0.076 0.384-0.095 0.577-0.057s0.372 0.134 0.512 0.273l4.627 4.627 4.627-4.627c0.187-0.187 0.442-0.292 0.707-0.292s0.519 0.105 0.707 0.292l4.627 4.627 4.627-4.627c0.14-0.14 0.318-0.235 0.512-0.273s0.395-0.019 0.577 0.057c0.183 0.076 0.339 0.204 0.449 0.368s0.169 0.357 0.169 0.555v26.667c0.001 0.197-0.056 0.39-0.166 0.554s-0.265 0.291-0.448 0.366c-0.122 0.052-0.254 0.079-0.387 0.080zM10.667 23c0.131-0.001 0.262 0.025 0.383 0.075s0.231 0.124 0.324 0.218l4.627 4.627 4.627-4.627c0.187-0.187 0.442-0.292 0.707-0.292s0.519 0.105 0.707 0.292l3.627 3.627v-21.84l-3.627 3.627c-0.187 0.187-0.442 0.292-0.707 0.292s-0.519-0.105-0.707-0.292l-4.627-4.627-4.627 4.627c-0.188 0.187-0.442 0.292-0.707 0.292s-0.519-0.105-0.707-0.292l-3.627-3.627v21.84l3.627-3.627c0.092-0.093 0.202-0.168 0.324-0.218s0.252-0.076 0.383-0.075z"></path>
<path fill="#aac4ff" style="fill: var(--color8, #aac4ff)" d="M21.333 13.667h-10.667c-0.265 0-0.52-0.105-0.707-0.293s-0.293-0.442-0.293-0.707 0.105-0.52 0.293-0.707c0.188-0.188 0.442-0.293 0.707-0.293h10.667c0.265 0 0.52 0.105 0.707 0.293s0.293 0.442 0.293 0.707-0.105 0.52-0.293 0.707c-0.187 0.188-0.442 0.293-0.707 0.293z"></path>
<path fill="#aac4ff" style="fill: var(--color8, #aac4ff)" d="M21.333 20.333h-10.667c-0.265 0-0.52-0.105-0.707-0.293s-0.293-0.442-0.293-0.707 0.105-0.52 0.293-0.707c0.188-0.188 0.442-0.293 0.707-0.293h10.667c0.265 0 0.52 0.105 0.707 0.293s0.293 0.442 0.293 0.707-0.105 0.52-0.293 0.707c-0.187 0.188-0.442 0.293-0.707 0.293z"></path>
</symbol>
<symbol id="icon-fantasy" viewBox="0 0 32 32">
<path fill="#aac4ff" style="fill: var(--color8, #aac4ff)" d="M24.707 25.653h-17.507c-0.21 0.002-0.414-0.063-0.584-0.185s-0.297-0.296-0.362-0.495l-4.253-12.973c-0.065-0.187-0.072-0.389-0.020-0.579s0.162-0.361 0.313-0.488c0.15-0.131 0.335-0.214 0.533-0.238s0.398 0.013 0.574 0.105l7.76 3.867 4-7.76c0.092-0.155 0.223-0.283 0.38-0.372s0.334-0.136 0.514-0.136c0.18 0 0.357 0.047 0.514 0.136s0.287 0.217 0.38 0.372l4 7.773 7.773-3.867c0.174-0.091 0.372-0.127 0.567-0.103s0.379 0.106 0.526 0.236c0.128 0.14 0.213 0.313 0.246 0.5s0.012 0.379-0.059 0.554l-4.347 12.96c-0.063 0.202-0.189 0.378-0.359 0.503s-0.376 0.192-0.588 0.191zM8 23.653h16l3.347-9.987-6.493 3.227c-0.116 0.060-0.243 0.095-0.373 0.105s-0.261-0.006-0.385-0.047-0.239-0.106-0.337-0.192c-0.099-0.086-0.179-0.19-0.237-0.307l-3.52-6.907-3.507 6.907c-0.058 0.117-0.139 0.221-0.237 0.307s-0.213 0.151-0.337 0.192c-0.124 0.041-0.255 0.057-0.385 0.047s-0.257-0.046-0.373-0.105l-6.52-3.267 3.36 10.027z"></path>
<path fill="#aac4ff" style="fill: var(--color8, #aac4ff)" d="M16 19.626c-0.264-0.003-0.516-0.11-0.703-0.297s-0.293-0.439-0.297-0.703c-0.002-0.131 0.023-0.26 0.071-0.382s0.121-0.232 0.213-0.325c0.092-0.093 0.201-0.167 0.322-0.217s0.25-0.076 0.381-0.076c0.265 0 0.52 0.105 0.707 0.293s0.293 0.442 0.293 0.707-0.105 0.52-0.293 0.707c-0.188 0.187-0.442 0.293-0.707 0.293h0.013z"></path>
</symbol>
<symbol id="icon-minus" viewBox="0 0 320 32">
<path d="M16 0h288c8.837 0 16 7.163 16 16s-7.163 16-16 16h-288c-8.837 0-16-7.163-16-16s7.163-16 16-16z"></path>
</symbol>
<symbol id="icon-plus" viewBox="0 0 32 32">
<path d="M1.6 14.222h28.8c0.884 0 1.6 0.716 1.6 1.6s-0.716 1.6-1.6 1.6h-28.8c-0.884 0-1.6-0.716-1.6-1.6s0.716-1.6 1.6-1.6z"></path>
<path d="M14.222 30.222v-28.444c0-0.982 0.796-1.778 1.778-1.778s1.778 0.796 1.778 1.778v28.444c0 0.982-0.796 1.778-1.778 1.778s-1.778-0.796-1.778-1.778z"></path>
</symbol>
<symbol id="icon-log-out" viewBox="0 0 32 32">
<path fill="none" stroke="#aac4ff" style="stroke: var(--color8, #aac4ff)" stroke-linejoin="round" stroke-linecap="round" stroke-miterlimit="4" stroke-width="2.6667" d="M21.333 22.667l6.667-6.667M28 16l-6.667-6.667M28 16h-16M12 4h-1.6c-2.24 0-3.36 0-4.216 0.436-0.753 0.383-1.365 0.995-1.748 1.748-0.436 0.856-0.436 1.976-0.436 4.216v11.2c0 2.24 0 3.36 0.436 4.216 0.383 0.753 0.995 1.365 1.748 1.748 0.856 0.436 1.976 0.436 4.216 0.436h1.6"></path>
</symbol>
<symbol id="icon-shopping-bag" viewBox="0 0 32 32">
<path fill="none" stroke="#aac4ff" style="stroke: var(--color8, #aac4ff)" stroke-linejoin="round" stroke-linecap="round" stroke-miterlimit="4" stroke-width="2.6667" d="M21.334 12v-4c0-2.946-2.388-5.333-5.333-5.333s-5.333 2.388-5.333 5.333v4M4.79 13.803l-0.8 8.533c-0.227 2.426-0.341 3.639 0.061 4.576 0.354 0.823 0.973 1.504 1.76 1.933 0.895 0.488 2.114 0.488 4.551 0.488h11.277c2.437 0 3.655 0 4.551-0.488 0.787-0.429 1.406-1.11 1.76-1.933 0.403-0.937 0.289-2.15 0.061-4.576l-0.8-8.533c-0.192-2.049-0.288-3.073-0.749-3.848-0.406-0.682-1.005-1.228-1.722-1.568-0.814-0.386-1.843-0.386-3.901-0.386h-9.677c-2.058 0-3.087 0-3.901 0.386-0.717 0.34-1.317 0.886-1.722 1.568-0.461 0.774-0.557 1.799-0.749 3.848z"></path>
</symbol>
<symbol id="icon-settings" viewBox="0 0 32 32">
<path fill="none" stroke="#aac4ff" style="stroke: var(--color8, #aac4ff)" stroke-linejoin="round" stroke-linecap="round" stroke-miterlimit="4" stroke-width="2.6667" d="M16 20c2.209 0 4-1.791 4-4s-1.791-4-4-4c-2.209 0-4 1.791-4 4s1.791 4 4 4z"></path>
<path fill="none" stroke="#aac4ff" style="stroke: var(--color8, #aac4ff)" stroke-linejoin="round" stroke-linecap="round" stroke-miterlimit="4" stroke-width="2.6667" d="M24.97 19.636c-0.161 0.366-0.209 0.771-0.138 1.164s0.259 0.756 0.538 1.042l0.073 0.073c0.225 0.225 0.404 0.492 0.526 0.787s0.185 0.61 0.185 0.928c0 0.319-0.063 0.634-0.185 0.928s-0.301 0.562-0.526 0.787c-0.225 0.225-0.493 0.404-0.787 0.526s-0.61 0.185-0.928 0.185c-0.319 0-0.634-0.063-0.928-0.185s-0.562-0.301-0.787-0.526l-0.073-0.073c-0.286-0.279-0.648-0.467-1.042-0.538s-0.799-0.023-1.164 0.138c-0.359 0.154-0.664 0.409-0.88 0.734s-0.331 0.706-0.333 1.096v0.206c0 0.643-0.255 1.26-0.71 1.714s-1.071 0.71-1.714 0.71-1.259-0.255-1.714-0.71c-0.455-0.455-0.71-1.071-0.71-1.714v-0.109c-0.009-0.401-0.139-0.79-0.373-1.117s-0.56-0.575-0.936-0.714c-0.366-0.161-0.771-0.209-1.164-0.138s-0.756 0.259-1.042 0.538l-0.073 0.073c-0.225 0.225-0.493 0.404-0.787 0.526s-0.61 0.185-0.928 0.185c-0.319 0-0.634-0.063-0.928-0.185s-0.562-0.301-0.787-0.526c-0.225-0.225-0.404-0.493-0.526-0.787s-0.185-0.61-0.185-0.928c0-0.319 0.063-0.634 0.185-0.928s0.301-0.562 0.526-0.787l0.073-0.073c0.279-0.286 0.467-0.648 0.538-1.042s0.023-0.799-0.138-1.164c-0.154-0.359-0.409-0.664-0.734-0.88s-0.706-0.331-1.096-0.333h-0.206c-0.643 0-1.26-0.255-1.714-0.71s-0.71-1.071-0.71-1.714c0-0.643 0.255-1.259 0.71-1.714s1.071-0.71 1.714-0.71h0.109c0.401-0.009 0.79-0.139 1.117-0.373s0.575-0.56 0.714-0.936c0.161-0.366 0.209-0.771 0.138-1.164s-0.259-0.756-0.538-1.042l-0.073-0.073c-0.225-0.225-0.404-0.493-0.526-0.787s-0.185-0.61-0.185-0.928c0-0.319 0.063-0.634 0.185-0.928s0.301-0.562 0.526-0.787c0.225-0.225 0.493-0.404 0.787-0.526s0.61-0.185 0.928-0.185c0.319 0 0.634 0.063 0.928 0.185s0.562 0.301 0.787 0.526l0.073 0.073c0.286 0.279 0.649 0.467 1.042 0.538s0.799 0.023 1.164-0.138h0.097c0.358-0.154 0.664-0.409 0.88-0.734s0.331-0.706 0.332-1.096v-0.206c0-0.643 0.255-1.26 0.71-1.714s1.071-0.71 1.714-0.71 1.26 0.255 1.714 0.71c0.455 0.455 0.71 1.071 0.71 1.714v0.109c0.001 0.39 0.117 0.771 0.333 1.096s0.521 0.58 0.88 0.734c0.366 0.161 0.771 0.209 1.164 0.138s0.756-0.259 1.042-0.538l0.073-0.073c0.225-0.225 0.492-0.404 0.787-0.526s0.61-0.185 0.928-0.185c0.319 0 0.634 0.063 0.928 0.185s0.562 0.301 0.787 0.526c0.225 0.225 0.404 0.493 0.526 0.787s0.185 0.61 0.185 0.928c0 0.319-0.063 0.634-0.185 0.928s-0.301 0.562-0.526 0.787l-0.073 0.073c-0.279 0.286-0.467 0.649-0.538 1.042s-0.023 0.799 0.138 1.164v0.097c0.154 0.358 0.409 0.664 0.734 0.88s0.706 0.331 1.096 0.332h0.206c0.643 0 1.26 0.255 1.714 0.71s0.71 1.071 0.71 1.714-0.255 1.26-0.71 1.714c-0.455 0.455-1.071 0.71-1.714 0.71h-0.109c-0.39 0.001-0.771 0.117-1.096 0.333s-0.58 0.521-0.734 0.88z"></path>
</symbol>
<symbol id="icon-cards" viewBox="0 0 32 32">
<path fill="#aac4ff" style="fill: var(--color8, #aac4ff)" d="M3.194 28.252l-1.357-0.587c-0.825-0.364-1.377-0.993-1.657-1.888s-0.233-1.776 0.14-2.643l2.874-6.545v11.664zM9.582 31.944c-0.878 0-1.63-0.329-2.256-0.986s-0.938-1.448-0.938-2.371v-10.070l4.232 12.336c0.080 0.196 0.16 0.385 0.24 0.566s0.186 0.357 0.319 0.524h-1.597zM17.806 31.776c-0.852 0.336-1.677 0.294-2.475-0.126s-1.357-1.077-1.677-1.972l-7.106-20.476c-0.319-0.895-0.293-1.769 0.080-2.622s0.985-1.434 1.836-1.741l12.057-4.615c0.852-0.336 1.677-0.294 2.475 0.126s1.357 1.077 1.677 1.972l7.106 20.476c0.319 0.895 0.293 1.769-0.080 2.622s-0.985 1.434-1.836 1.741l-12.057 4.615zM14.372 11.804c0.452 0 0.832-0.161 1.138-0.482s0.459-0.72 0.459-1.196c0-0.476-0.153-0.874-0.459-1.196s-0.685-0.482-1.138-0.482c-0.452 0-0.832 0.161-1.138 0.482s-0.459 0.72-0.459 1.196c0 0.476 0.153 0.874 0.459 1.196s0.685 0.482 1.138 0.482zM16.688 28.587l12.057-4.615-7.106-20.559-12.057 4.615 7.106 20.559z"></path>
</symbol>
<symbol id="icon-role_playing" viewBox="0 0 59 32">
<path fill="#aac4ff" style="fill: var(--color8, #aac4ff)" d="M18.133 32c-2.267 0-4.433-0.4-6.5-1.2s-3.922-1.978-5.567-3.533c-2.133-2-3.678-4.367-4.633-7.1s-1.433-5.567-1.433-8.5c0-3.467 0.844-6.278 2.533-8.433s4.156-3.233 7.4-3.233c0.622 0 1.211 0.056 1.767 0.167s1.122 0.278 1.7 0.5l15.933 5.933 15.933-5.933c0.578-0.222 1.145-0.389 1.7-0.5s1.145-0.167 1.767-0.167c3.245 0 5.711 1.078 7.4 3.233s2.533 4.967 2.533 8.433c0 2.933-0.478 5.767-1.433 8.5s-2.5 5.1-4.633 7.1c-1.645 1.555-3.5 2.733-5.567 3.533s-4.233 1.2-6.5 1.2c-2.933 0-5.422-0.667-7.467-2l-3.067-2h-1.333l-3.067 2c-2.044 1.333-4.533 2-7.467 2zM18.133 26.667c1.644 0 3.178-0.389 4.6-1.167s2.733-1.722 3.933-2.833h5.333c1.2 1.111 2.511 2.056 3.933 2.833s2.955 1.167 4.6 1.167c1.6 0 3.145-0.278 4.633-0.833s2.811-1.411 3.967-2.567c1.511-1.511 2.589-3.289 3.233-5.333s0.967-4.133 0.967-6.267c0-1.822-0.378-3.344-1.133-4.567s-1.955-1.811-3.6-1.767c-0.133 0-0.622 0.089-1.467 0.267l-17.8 6.667-17.8-6.667c-0.222-0.089-0.456-0.156-0.7-0.2s-0.5-0.067-0.767-0.067c-1.644 0-2.844 0.6-3.6 1.8s-1.133 2.711-1.133 4.533c0 2.178 0.322 4.289 0.967 6.333s1.744 3.822 3.3 5.333c1.156 1.111 2.467 1.944 3.933 2.5s3 0.833 4.6 0.833zM21.4 22.667c1.644 0 2.933-0.367 3.867-1.1s1.4-1.744 1.4-3.033c0-2.178-1.433-4.256-4.3-6.233s-5.9-2.967-9.1-2.967c-1.644 0-2.933 0.367-3.867 1.1s-1.4 1.744-1.4 3.033c0 2.178 1.433 4.256 4.3 6.233s5.9 2.967 9.1 2.967zM21 18.667c-1.689 0-3.522-0.556-5.5-1.667s-3.144-2.244-3.5-3.4c0.222-0.089 0.478-0.167 0.767-0.233s0.589-0.1 0.9-0.1c1.689 0 3.522 0.567 5.5 1.7s3.144 2.278 3.5 3.433c-0.222 0.089-0.478 0.156-0.767 0.2s-0.589 0.067-0.9 0.067zM37.267 22.733c3.2 0 6.233-1 9.1-3s4.3-4.089 4.3-6.267c0-1.289-0.455-2.311-1.367-3.067s-2.211-1.133-3.9-1.133c-3.2 0-6.233 1-9.1 3s-4.3 4.089-4.3 6.267c0 1.289 0.467 2.311 1.4 3.067s2.222 1.133 3.867 1.133zM37.667 18.667c-0.311 0-0.6-0.022-0.867-0.067s-0.511-0.111-0.733-0.2c0.355-1.156 1.522-2.289 3.5-3.4s3.811-1.667 5.5-1.667c0.311 0 0.6 0.022 0.867 0.067s0.511 0.111 0.733 0.2c-0.355 1.156-1.522 2.289-3.5 3.4s-3.811 1.667-5.5 1.667z"></path>
</symbol>
<symbol id="icon-quests" viewBox="0 0 32 32">
<path fill="#aac4ff" style="fill: var(--color8, #aac4ff)" d="M14.4 25.6c3.093 0 5.733-1.087 7.92-3.26s3.28-4.82 3.28-7.94c0-3.093-1.093-5.733-3.28-7.92s-4.827-3.28-7.92-3.28c-3.12 0-5.767 1.093-7.94 3.28s-3.26 4.827-3.26 7.92c0 3.12 1.087 5.767 3.26 7.94s4.82 3.26 7.94 3.26zM14.4 20.8c-2.213 0-4.18-0.593-5.9-1.78s-2.953-2.727-3.7-4.62c0.747-1.867 1.98-3.4 3.7-4.6s3.687-1.8 5.9-1.8c2.187 0 4.14 0.6 5.86 1.8s2.967 2.733 3.74 4.6c-0.773 1.893-2.020 3.433-3.74 4.62s-3.673 1.78-5.86 1.78zM14.4 18.4c1.467 0 2.813-0.353 4.040-1.060s2.187-1.687 2.88-2.94c-0.693-1.227-1.653-2.2-2.88-2.92s-2.573-1.080-4.040-1.080c-1.493 0-2.853 0.36-4.080 1.080s-2.187 1.693-2.88 2.92c0.693 1.253 1.653 2.233 2.88 2.94s2.587 1.060 4.080 1.060zM14.4 16.8c0.667 0 1.233-0.227 1.7-0.68s0.7-1.027 0.7-1.72c0-0.667-0.233-1.233-0.7-1.7s-1.033-0.7-1.7-0.7c-0.693 0-1.267 0.233-1.72 0.7s-0.68 1.033-0.68 1.7c0 0.693 0.227 1.267 0.68 1.72s1.027 0.68 1.72 0.68zM14.4 28.8c-2 0-3.873-0.38-5.62-1.14s-3.267-1.787-4.56-3.080c-1.293-1.293-2.32-2.813-3.080-4.56s-1.14-3.62-1.14-5.62c0-1.973 0.38-3.833 1.14-5.58s1.787-3.273 3.080-4.58c1.293-1.307 2.813-2.34 4.56-3.1s3.62-1.14 5.62-1.14c1.973 0 3.833 0.38 5.58 1.14s3.273 1.793 4.58 3.1c1.307 1.307 2.34 2.833 3.1 4.58s1.14 3.607 1.14 5.58c0 1.707-0.28 3.32-0.84 4.84s-1.333 2.907-2.32 4.16l6.36 6.36-2.28 2.24-6.36-6.32c-1.253 0.987-2.64 1.753-4.16 2.3s-3.12 0.82-4.8 0.82z"></path>
</symbol>
<symbol id="icon-classical" viewBox="0 0 32 32">
<path fill="#aac4ff" style="fill: var(--color8, #aac4ff)" d="M12.8 28.8h6.4v-6.4h-6.4v6.4zM3.2 19.2h6.4v-6.4h-6.4v6.4zM12.8 19.2h6.4v-6.4h-6.4v6.4zM22.4 19.2h6.4v-6.4h-6.4v6.4zM22.4 9.6h6.4v-6.4h-6.4v6.4zM9.6 32v-9.6h-9.6v-12.8h19.2v-9.6h12.8v22.4h-9.6v9.6h-12.8z"></path>
</symbol>
<symbol id="icon-creative" viewBox="0 0 32 32">
<path fill="#aac4ff" style="fill: var(--color8, #aac4ff)" d="M16 32c-2.187 0-4.253-0.42-6.2-1.26s-3.647-1.987-5.1-3.44c-1.453-1.453-2.6-3.153-3.44-5.1s-1.26-4.013-1.26-6.2c0-2.213 0.433-4.293 1.3-6.24s2.040-3.64 3.52-5.080c1.48-1.44 3.207-2.58 5.18-3.42s4.080-1.26 6.32-1.26c2.133 0 4.147 0.367 6.040 1.1s3.553 1.747 4.98 3.040c1.427 1.293 2.56 2.827 3.4 4.6s1.26 3.687 1.26 5.74c0 3.067-0.933 5.42-2.8 7.060s-4.133 2.46-6.8 2.46h-2.96c-0.24 0-0.407 0.067-0.5 0.2s-0.14 0.28-0.14 0.44c0 0.32 0.2 0.78 0.6 1.38s0.6 1.287 0.6 2.060c0 1.333-0.367 2.32-1.1 2.96s-1.7 0.96-2.9 0.96zM7.2 17.6c0.693 0 1.267-0.227 1.72-0.68s0.68-1.027 0.68-1.72c0-0.693-0.227-1.267-0.68-1.72s-1.027-0.68-1.72-0.68c-0.693 0-1.267 0.227-1.72 0.68s-0.68 1.027-0.68 1.72c0 0.693 0.227 1.267 0.68 1.72s1.027 0.68 1.72 0.68zM12 11.2c0.693 0 1.267-0.227 1.72-0.68s0.68-1.027 0.68-1.72c0-0.693-0.227-1.267-0.68-1.72s-1.027-0.68-1.72-0.68c-0.693 0-1.267 0.227-1.72 0.68s-0.68 1.027-0.68 1.72c0 0.693 0.227 1.267 0.68 1.72s1.027 0.68 1.72 0.68zM20 11.2c0.693 0 1.267-0.227 1.72-0.68s0.68-1.027 0.68-1.72c0-0.693-0.227-1.267-0.68-1.72s-1.027-0.68-1.72-0.68c-0.693 0-1.267 0.227-1.72 0.68s-0.68 1.027-0.68 1.72c0 0.693 0.227 1.267 0.68 1.72s1.027 0.68 1.72 0.68zM24.8 17.6c0.693 0 1.267-0.227 1.72-0.68s0.68-1.027 0.68-1.72c0-0.693-0.227-1.267-0.68-1.72s-1.027-0.68-1.72-0.68c-0.693 0-1.267 0.227-1.72 0.68s-0.68 1.027-0.68 1.72c0 0.693 0.227 1.267 0.68 1.72s1.027 0.68 1.72 0.68zM16 28.8c0.24 0 0.433-0.067 0.58-0.2s0.22-0.307 0.22-0.52c0-0.373-0.2-0.813-0.6-1.32s-0.6-1.267-0.6-2.28c0-1.12 0.387-2.013 1.16-2.68s1.72-1 2.84-1h2.8c1.76 0 3.267-0.513 4.52-1.54s1.88-2.62 1.88-4.78c0-3.227-1.233-5.913-3.7-8.060s-5.393-3.22-8.78-3.22c-3.627 0-6.72 1.24-9.28 3.72s-3.84 5.507-3.84 9.080c0 3.547 1.247 6.567 3.74 9.060s5.513 3.74 9.060 3.74z"></path>
</symbol>
<symbol id="icon-puzzle" viewBox="0 0 32 32">
<path fill="#aac4ff" style="fill: var(--color8, #aac4ff)" d="M9.518 32h-6.236c-0.903 0-1.675-0.321-2.318-0.964s-0.964-1.415-0.964-2.318v-6.236c1.313 0 2.462-0.417 3.446-1.251s1.477-1.894 1.477-3.179c0-1.286-0.492-2.345-1.477-3.18s-2.133-1.251-3.446-1.251v-6.236c0-0.903 0.321-1.675 0.964-2.318s1.415-0.964 2.318-0.964h6.564c0-1.149 0.397-2.12 1.19-2.913s1.764-1.19 2.913-1.19c1.149 0 2.12 0.397 2.913 1.19s1.19 1.764 1.19 2.913h6.564c0.903 0 1.675 0.321 2.318 0.964s0.964 1.415 0.964 2.318v6.564c1.149 0 2.12 0.397 2.913 1.19s1.19 1.764 1.19 2.913c0 1.149-0.397 2.12-1.19 2.913s-1.764 1.19-2.913 1.19v6.564c0 0.903-0.321 1.675-0.964 2.318s-1.415 0.964-2.318 0.964h-6.236c0-1.368-0.431-2.53-1.292-3.487s-1.908-1.436-3.138-1.436-2.277 0.479-3.138 1.436c-0.862 0.957-1.292 2.12-1.292 3.487zM3.282 28.718h3.487c0.656-1.805 1.709-3.077 3.159-3.815s2.79-1.108 4.021-1.108c1.231 0 2.571 0.369 4.021 1.108s2.503 2.010 3.159 3.815h3.487v-9.846h3.282c0.219 0 0.41-0.082 0.574-0.246s0.246-0.356 0.246-0.574c0-0.219-0.082-0.41-0.246-0.574s-0.356-0.246-0.574-0.246h-3.282v-9.846h-9.846v-3.282c0-0.219-0.082-0.41-0.246-0.574s-0.356-0.246-0.574-0.246c-0.219 0-0.41 0.082-0.574 0.246s-0.246 0.356-0.246 0.574v3.282h-9.846v3.61c1.477 0.547 2.667 1.463 3.569 2.749s1.354 2.721 1.354 4.308c0 1.559-0.451 2.981-1.354 4.267s-2.092 2.215-3.569 2.79v3.61z"></path>
</symbol>
<symbol id="icon-cooperative" viewBox="0 0 35 32">
<path fill="#aac4ff" style="fill: var(--color8, #aac4ff)" d="M17.408 28.8c0.107 0 0.213-0.027 0.32-0.080s0.187-0.107 0.24-0.16l13.114-13.12c0.32-0.32 0.553-0.68 0.7-1.080s0.22-0.8 0.22-1.2c0-0.427-0.073-0.833-0.22-1.22s-0.38-0.727-0.7-1.020l-6.797-6.8c-0.293-0.32-0.633-0.553-1.020-0.7s-0.793-0.22-1.22-0.22c-0.4 0-0.8 0.073-1.199 0.22s-0.76 0.38-1.080 0.7l-0.44 0.44 2.959 3c0.4 0.373 0.693 0.8 0.88 1.28s0.28 0.987 0.28 1.52c0 1.12-0.38 2.060-1.139 2.82s-1.699 1.14-2.819 1.14c-0.533 0-1.046-0.093-1.539-0.28s-0.926-0.467-1.299-0.84l-2.999-2.96-6.997 7c-0.080 0.080-0.14 0.167-0.18 0.26s-0.060 0.193-0.060 0.3c0 0.213 0.080 0.407 0.24 0.58s0.346 0.26 0.56 0.26c0.107 0 0.213-0.027 0.32-0.080s0.187-0.107 0.24-0.16l5.438-5.44 2.239 2.24-5.398 5.44c-0.080 0.080-0.14 0.167-0.18 0.26s-0.060 0.193-0.060 0.3c0 0.213 0.080 0.4 0.24 0.56s0.347 0.24 0.56 0.24c0.107 0 0.213-0.027 0.32-0.080s0.187-0.107 0.24-0.16l5.438-5.4 2.239 2.24-5.397 5.44c-0.080 0.053-0.14 0.133-0.18 0.24s-0.060 0.213-0.060 0.32c0 0.213 0.080 0.4 0.24 0.56s0.347 0.24 0.56 0.24c0.107 0 0.207-0.020 0.3-0.060s0.18-0.1 0.26-0.18l5.438-5.4 2.239 2.24-5.438 5.44c-0.080 0.080-0.14 0.167-0.18 0.26s-0.060 0.193-0.060 0.3c0 0.213 0.087 0.4 0.26 0.56s0.367 0.24 0.58 0.24zM17.368 32c-0.986 0-1.859-0.327-2.619-0.98s-1.206-1.473-1.339-2.46c-0.906-0.133-1.666-0.507-2.279-1.12s-0.986-1.373-1.12-2.28c-0.906-0.133-1.659-0.513-2.259-1.14s-0.966-1.38-1.099-2.26c-1.013-0.133-1.839-0.573-2.479-1.32s-0.96-1.627-0.96-2.64c0-0.533 0.1-1.047 0.3-1.54s0.486-0.927 0.86-1.3l9.276-9.24 5.238 5.24c0.053 0.080 0.133 0.14 0.24 0.18s0.213 0.060 0.32 0.060c0.24 0 0.44-0.073 0.6-0.22s0.24-0.34 0.24-0.58c0-0.107-0.020-0.213-0.060-0.32s-0.1-0.187-0.18-0.24l-5.717-5.72c-0.293-0.32-0.633-0.553-1.020-0.7s-0.793-0.22-1.219-0.22c-0.4 0-0.8 0.073-1.199 0.22s-0.76 0.38-1.080 0.7l-5.637 5.68c-0.24 0.24-0.44 0.52-0.6 0.84s-0.267 0.64-0.32 0.96c-0.053 0.32-0.053 0.647 0 0.98s0.16 0.647 0.32 0.94l-2.319 2.32c-0.453-0.613-0.786-1.287-1-2.020s-0.293-1.473-0.24-2.22c0.053-0.747 0.24-1.473 0.56-2.18s0.76-1.34 1.319-1.9l5.637-5.64c0.64-0.613 1.353-1.080 2.139-1.4s1.593-0.48 2.419-0.48c0.826 0 1.633 0.16 2.419 0.48s1.486 0.787 2.099 1.4l0.44 0.44 0.44-0.44c0.64-0.613 1.353-1.080 2.139-1.4s1.593-0.48 2.419-0.48c0.826 0 1.633 0.16 2.419 0.48s1.486 0.787 2.099 1.4l6.757 6.76c0.613 0.613 1.080 1.32 1.399 2.12s0.48 1.613 0.48 2.44c0 0.827-0.16 1.633-0.48 2.42s-0.786 1.487-1.399 2.1l-13.114 13.080c-0.373 0.373-0.806 0.667-1.3 0.88s-1.006 0.32-1.539 0.32z"></path>
</symbol>
<symbol id="icon-adventures" viewBox="0 0 32 32">
<path fill="#aac4ff" style="fill: var(--color8, #aac4ff)" d="M0 32v-7.44l14-18.88-2.8-3.76 2.56-1.92 2.24 3 2.24-3 2.56 1.92-2.8 3.76 14 18.88v7.44h-32zM16 8.36l-12.8 17.24v3.2h4.8l8-11.2 8 11.2h4.8v-3.2l-12.8-17.24zM11.92 28.8h8.16l-4.080-5.68-4.080 5.68z"></path>
</symbol>
<symbol id="icon-strategies" viewBox="0 0 29 32">
<path fill="#aac4ff" style="fill: var(--color8, #aac4ff)" d="M3.2 28.8h22.4v-3.2h-22.4v3.2zM8.48 22.4h11.84l-0.92-6.4h-10l-0.92 6.4zM0 32v-6.4c0-0.88 0.313-1.633 0.94-2.26s1.38-0.94 2.26-0.94h2.080l0.88-6.4h-4.56v-3.2h25.6v3.2h-4.56l0.88 6.4h2.080c0.88 0 1.633 0.313 2.26 0.94s0.94 1.38 0.94 2.26v6.4h-28.8zM6.040 12.8l-2.84-12.8c0.88 0.667 1.787 1.293 2.72 1.88s1.96 0.88 3.080 0.88c1.067 0 2.047-0.273 2.94-0.82s1.713-1.193 2.46-1.94c0.747 0.747 1.567 1.393 2.46 1.94s1.873 0.82 2.94 0.82c1.12 0 2.147-0.293 3.080-0.88s1.84-1.213 2.72-1.88l-2.84 12.8h-3.28l1.56-6.92-0.3 0.040c-0.2 0.027-0.513 0.040-0.94 0.040-0.96 0-1.9-0.147-2.82-0.44s-1.78-0.707-2.58-1.24c-0.773 0.533-1.607 0.947-2.5 1.24s-1.807 0.44-2.74 0.44c-0.48 0-0.833-0.013-1.060-0.040l-0.34-0.040 1.56 6.92h-3.28z"></path>
</symbol>
<symbol id="icon-adult" viewBox="0 0 66 32">
<path fill="#aac4ff" style="fill: var(--color8, #aac4ff)" d="M16.266 29.538h-5.947v-16.266c0-0.446 0-0.998 0-1.654 0.026-0.656 0.053-1.339 0.079-2.048s0.053-1.339 0.079-1.89c-0.131 0.158-0.42 0.446-0.866 0.866-0.42 0.394-0.814 0.748-1.182 1.063l-3.23 2.599-2.875-3.584 9.058-7.207h4.884v28.121zM33.803 1.063c1.628 0 3.111 0.249 4.45 0.748 1.365 0.499 2.455 1.247 3.269 2.245 0.84 0.998 1.26 2.258 1.26 3.781 0 1.129-0.223 2.127-0.669 2.993-0.447 0.84-1.050 1.575-1.812 2.206-0.735 0.63-1.589 1.182-2.56 1.654 0.998 0.525 1.943 1.142 2.836 1.851 0.919 0.683 1.654 1.497 2.205 2.442 0.578 0.919 0.867 2.009 0.867 3.269 0 1.549-0.42 2.901-1.26 4.057-0.814 1.155-1.969 2.048-3.466 2.678-1.471 0.63-3.177 0.945-5.12 0.945-2.101 0-3.886-0.302-5.356-0.906s-2.599-1.47-3.387-2.599c-0.762-1.129-1.142-2.468-1.142-4.017 0-1.287 0.236-2.402 0.709-3.348 0.499-0.945 1.155-1.759 1.969-2.442 0.814-0.709 1.72-1.3 2.718-1.772-0.84-0.525-1.602-1.116-2.284-1.772-0.683-0.683-1.234-1.444-1.654-2.284-0.394-0.866-0.591-1.864-0.591-2.993 0-1.497 0.42-2.744 1.26-3.742s1.943-1.746 3.308-2.245c1.392-0.499 2.875-0.748 4.45-0.748zM29.431 22.055c0 1.024 0.354 1.864 1.063 2.521 0.735 0.657 1.812 0.985 3.23 0.985 0.998 0 1.812-0.145 2.442-0.433 0.656-0.289 1.142-0.696 1.457-1.221 0.341-0.525 0.512-1.129 0.512-1.812 0-0.709-0.21-1.326-0.63-1.851-0.42-0.551-0.945-1.037-1.575-1.457-0.604-0.446-1.234-0.853-1.89-1.221l-0.512-0.276c-0.814 0.368-1.536 0.788-2.166 1.26-0.604 0.473-1.077 0.998-1.418 1.575-0.341 0.551-0.512 1.195-0.512 1.93zM33.763 5.396c-0.972 0-1.786 0.249-2.442 0.748-0.63 0.499-0.945 1.208-0.945 2.127 0 0.63 0.158 1.195 0.473 1.694 0.315 0.473 0.735 0.893 1.26 1.26 0.525 0.341 1.089 0.67 1.694 0.985 0.604-0.289 1.155-0.604 1.654-0.945 0.525-0.341 0.945-0.748 1.26-1.221 0.315-0.499 0.473-1.090 0.473-1.772 0-0.919-0.328-1.628-0.985-2.127-0.63-0.499-1.444-0.748-2.442-0.748zM58.428 13.548h7.444v4.214h-7.444v7.404h-4.214v-7.404h-7.444v-4.214h7.444v-7.483h4.214v7.483z"></path>
</symbol>
<symbol id="icon-on_the_way" viewBox="0 0 22 32">
<path fill="#aac4ff" style="fill: var(--color8, #aac4ff)" d="M3.2 30.4c-0.88 0-1.633-0.313-2.26-0.94s-0.94-1.38-0.94-2.26v-17.6c0-0.88 0.313-1.633 0.94-2.26s1.38-0.94 2.26-0.94h3.2v-4c0-0.667 0.233-1.233 0.7-1.7s1.033-0.7 1.7-0.7h4.8c0.667 0 1.233 0.233 1.7 0.7s0.7 1.033 0.7 1.7v4h3.2c0.88 0 1.633 0.313 2.26 0.94s0.94 1.38 0.94 2.26v17.6c0 0.88-0.313 1.633-0.94 2.26s-1.38 0.94-2.26 0.94c0 0.453-0.153 0.833-0.46 1.14s-0.687 0.46-1.14 0.46c-0.453 0-0.833-0.153-1.14-0.46s-0.46-0.687-0.46-1.14h-9.6c0 0.453-0.153 0.833-0.46 1.14s-0.687 0.46-1.14 0.46c-0.453 0-0.833-0.153-1.14-0.46s-0.46-0.687-0.46-1.14zM3.2 27.2h16v-17.6h-16v17.6zM4.8 25.6h2.4v-14.4h-2.4v14.4zM10 25.6h2.4v-14.4h-2.4v14.4zM15.2 25.6h2.4v-14.4h-2.4v14.4zM8.8 6.4h4.8v-4h-4.8v4z"></path>
</symbol>
<symbol id="icon-for_two" viewBox="0 0 44 32">
<path fill="#aac4ff" style="fill: var(--color8, #aac4ff)" d="M0 32v-5.6c0-1.133 0.292-2.175 0.875-3.125s1.358-1.675 2.325-2.175c2.067-1.033 4.167-1.808 6.3-2.325s4.3-0.775 6.5-0.775c2.2 0 4.367 0.258 6.5 0.775s4.233 1.292 6.3 2.325c0.967 0.5 1.742 1.225 2.325 2.175s0.875 1.992 0.875 3.125v5.6h-32zM36 32v-6c0-1.467-0.408-2.875-1.225-4.225s-1.975-2.508-3.475-3.475c1.7 0.2 3.3 0.542 4.8 1.025s2.9 1.075 4.2 1.775c1.2 0.667 2.117 1.408 2.75 2.225s0.95 1.708 0.95 2.675v6h-8zM16 16c-2.2 0-4.083-0.783-5.65-2.35s-2.35-3.45-2.35-5.65c0-2.2 0.783-4.083 2.35-5.65s3.45-2.35 5.65-2.35c2.2 0 4.083 0.783 5.65 2.35s2.35 3.45 2.35 5.65c0 2.2-0.783 4.083-2.35 5.65s-3.45 2.35-5.65 2.35zM36 8c0 2.2-0.783 4.083-2.35 5.65s-3.45 2.35-5.65 2.35c-0.367 0-0.833-0.042-1.4-0.125s-1.033-0.175-1.4-0.275c0.9-1.067 1.592-2.25 2.075-3.55s0.725-2.65 0.725-4.050c0-1.4-0.242-2.75-0.725-4.050s-1.175-2.483-2.075-3.55c0.467-0.167 0.933-0.275 1.4-0.325s0.933-0.075 1.4-0.075c2.2 0 4.083 0.783 5.65 2.35s2.35 3.45 2.35 5.65zM4 28h24v-1.6c0-0.367-0.092-0.7-0.275-1s-0.425-0.533-0.725-0.7c-1.8-0.9-3.617-1.575-5.45-2.025s-3.683-0.675-5.55-0.675-3.717 0.225-5.55 0.675c-1.833 0.45-3.65 1.125-5.45 2.025-0.3 0.167-0.542 0.4-0.725 0.7s-0.275 0.633-0.275 1v1.6zM16 12c1.1 0 2.042-0.392 2.825-1.175s1.175-1.725 1.175-2.825c0-1.1-0.392-2.042-1.175-2.825s-1.725-1.175-2.825-1.175c-1.1 0-2.042 0.392-2.825 1.175s-1.175 1.725-1.175 2.825c0 1.1 0.392 2.042 1.175 2.825s1.725 1.175 2.825 1.175z"></path>
</symbol>
<symbol id="icon-for_party" viewBox="0 0 32 32">
<path fill="#aac4ff" style="fill: var(--color8, #aac4ff)" d="M0 32l7.425-21.854 13.364 14.049-20.789 7.805zM4.9 26.849l10.469-3.902-6.756-7.102-3.712 11.005zM18.636 17.249l-1.559-1.639 8.316-8.741c0.792-0.832 1.745-1.249 2.858-1.249s2.067 0.416 2.859 1.249l0.891 0.937-1.559 1.639-0.891-0.937c-0.347-0.364-0.78-0.546-1.299-0.546s-0.953 0.182-1.299 0.546l-8.316 8.741zM12.696 11.005l-1.559-1.639 0.891-0.937c0.346-0.364 0.52-0.806 0.52-1.327s-0.173-0.963-0.52-1.327l-0.965-1.015 1.559-1.639 0.965 1.015c0.792 0.832 1.188 1.821 1.188 2.966s-0.396 2.133-1.188 2.966l-0.891 0.937zM15.666 14.127l-1.559-1.639 5.346-5.62c0.346-0.364 0.52-0.819 0.52-1.366s-0.173-1.002-0.52-1.366l-2.376-2.498 1.559-1.639 2.376 2.498c0.792 0.833 1.188 1.834 1.188 3.005s-0.396 2.172-1.188 3.005l-5.346 5.62zM21.606 20.371l-1.559-1.639 2.376-2.498c0.792-0.832 1.745-1.249 2.859-1.249s2.066 0.416 2.858 1.249l2.376 2.498-1.559 1.639-2.376-2.498c-0.346-0.364-0.78-0.546-1.299-0.546s-0.953 0.182-1.299 0.546l-2.376 2.498z"></path>
</symbol>
<symbol id="icon-for_kids" viewBox="0 0 32 32">
<path fill="#aac4ff" style="fill: var(--color8, #aac4ff)" d="M20.444 15.556c-0.622 0-1.148-0.215-1.578-0.644s-0.644-0.956-0.644-1.578c0-0.622 0.215-1.148 0.644-1.578s0.956-0.644 1.578-0.644c0.622 0 1.148 0.215 1.578 0.644s0.644 0.956 0.644 1.578c0 0.622-0.215 1.148-0.644 1.578s-0.956 0.644-1.578 0.644zM11.556 15.556c-0.622 0-1.148-0.215-1.578-0.644s-0.644-0.956-0.644-1.578c0-0.622 0.215-1.148 0.644-1.578s0.956-0.644 1.578-0.644c0.622 0 1.148 0.215 1.578 0.644s0.644 0.956 0.644 1.578c0 0.622-0.215 1.148-0.644 1.578s-0.956 0.644-1.578 0.644zM16 24.889c-1.778 0-3.385-0.489-4.822-1.467s-2.496-2.267-3.178-3.867h16c-0.681 1.6-1.741 2.889-3.178 3.867s-3.044 1.467-4.822 1.467zM16 32c-2.222 0-4.304-0.422-6.244-1.267s-3.63-1.985-5.067-3.422c-1.437-1.437-2.578-3.126-3.422-5.067s-1.267-4.022-1.267-6.244c0-2.222 0.422-4.304 1.267-6.244s1.985-3.63 3.422-5.067c1.437-1.437 3.126-2.578 5.067-3.422s4.022-1.267 6.244-1.267c2.222 0 4.304 0.422 6.244 1.267s3.63 1.985 5.067 3.422c1.437 1.437 2.578 3.126 3.422 5.067s1.267 4.022 1.267 6.244c0 2.222-0.422 4.304-1.267 6.244s-1.985 3.63-3.422 5.067c-1.437 1.437-3.126 2.578-5.067 3.422s-4.022 1.267-6.244 1.267zM16 28.444c3.437 0 6.37-1.215 8.8-3.644s3.644-5.363 3.644-8.8c0-3.437-1.215-6.37-3.644-8.8s-5.363-3.644-8.8-3.644h-0.533c-0.178 0-0.356 0.030-0.533 0.089-0.178 0.178-0.296 0.37-0.356 0.578s-0.089 0.43-0.089 0.667c0 0.622 0.215 1.148 0.644 1.578s0.956 0.644 1.578 0.644c0.267 0 0.511-0.044 0.733-0.133s0.452-0.133 0.689-0.133c0.356 0 0.652 0.133 0.889 0.4s0.356 0.578 0.356 0.933c0 0.681-0.319 1.119-0.956 1.311s-1.207 0.289-1.711 0.289c-1.333 0-2.481-0.481-3.444-1.444s-1.444-2.111-1.444-3.444v-0.267c0-0.089 0.015-0.207 0.044-0.356-2.459 0.889-4.459 2.385-6 4.489s-2.311 4.519-2.311 7.244c0 3.437 1.215 6.37 3.644 8.8s5.363 3.644 8.8 3.644z"></path>
</symbol>
<symbol id="icon-for_company" viewBox="0 0 64 32">
<path fill="#aac4ff" style="fill: var(--color8, #aac4ff)" d="M0 32v-4.2c0-1.911 0.978-3.467 2.933-4.667s4.533-1.8 7.733-1.8c0.578 0 1.133 0.011 1.667 0.033s1.044 0.078 1.533 0.167c-0.622 0.933-1.089 1.911-1.4 2.933s-0.467 2.089-0.467 3.2v4.333h-12zM16 32v-4.333c0-1.422 0.389-2.722 1.167-3.9s1.878-2.211 3.3-3.1c1.422-0.889 3.122-1.556 5.1-2s4.122-0.667 6.433-0.667c2.355 0 4.522 0.222 6.5 0.667s3.678 1.111 5.1 2c1.422 0.889 2.511 1.922 3.267 3.1s1.133 2.478 1.133 3.9v4.333h-32zM52 32v-4.333c0-1.156-0.145-2.244-0.433-3.267s-0.722-1.978-1.3-2.867c0.489-0.089 0.989-0.144 1.5-0.167s1.033-0.033 1.567-0.033c3.2 0 5.778 0.589 7.733 1.767s2.933 2.744 2.933 4.7v4.2h-12zM21.667 26.667h20.733c-0.445-0.889-1.678-1.667-3.7-2.333s-4.255-1-6.7-1c-2.445 0-4.678 0.333-6.7 1s-3.233 1.444-3.633 2.333zM10.667 18.667c-1.467 0-2.722-0.522-3.767-1.567s-1.567-2.3-1.567-3.767c0-1.511 0.522-2.778 1.567-3.8s2.3-1.533 3.767-1.533c1.511 0 2.778 0.511 3.8 1.533s1.533 2.289 1.533 3.8c0 1.467-0.511 2.722-1.533 3.767s-2.289 1.567-3.8 1.567zM53.333 18.667c-1.467 0-2.722-0.522-3.767-1.567s-1.567-2.3-1.567-3.767c0-1.511 0.522-2.778 1.567-3.8s2.3-1.533 3.767-1.533c1.511 0 2.778 0.511 3.8 1.533s1.533 2.289 1.533 3.8c0 1.467-0.511 2.722-1.533 3.767s-2.289 1.567-3.8 1.567zM32 16c-2.222 0-4.111-0.778-5.667-2.333s-2.333-3.444-2.333-5.667c0-2.267 0.778-4.167 2.333-5.7s3.445-2.3 5.667-2.3c2.267 0 4.167 0.767 5.7 2.3s2.3 3.433 2.3 5.7c0 2.222-0.767 4.111-2.3 5.667s-3.433 2.333-5.7 2.333zM32 10.667c0.755 0 1.389-0.256 1.9-0.767s0.767-1.144 0.767-1.9c0-0.756-0.255-1.389-0.767-1.9s-1.145-0.767-1.9-0.767c-0.755 0-1.389 0.256-1.9 0.767s-0.767 1.144-0.767 1.9c0 0.756 0.255 1.389 0.767 1.9s1.145 0.767 1.9 0.767z"></path>
</symbol>
<symbol id="icon-for_family" viewBox="0 0 39 32">
<path fill="#aac4ff" style="fill: var(--color8, #aac4ff)" d="M19.556 0l19.556 14.667-2.133 2.844-3.2-2.4v16.889h-28.444v-16.889l-3.2 2.4-2.133-2.844 19.556-14.667zM11.289 16.089c0 1.57 0.844 3.244 2.533 5.022s3.6 3.63 5.733 5.556c2.133-1.926 4.044-3.778 5.733-5.556s2.533-3.452 2.533-5.022c0-1.304-0.444-2.385-1.333-3.244s-1.956-1.289-3.2-1.289c-0.77 0-1.474 0.156-2.111 0.467s-1.178 0.719-1.622 1.222c-0.444-0.504-1-0.911-1.667-1.222s-1.356-0.467-2.067-0.467c-1.244 0-2.311 0.43-3.2 1.289s-1.333 1.941-1.333 3.244zM30.222 28.444v-16l-10.667-8-10.667 8v16h21.333z"></path>
</symbol>
<symbol id="icon-package_search" viewBox="0 0 32 32">
<path fill="none" stroke="#aac4ff" style="stroke: var(--color1, #aac4ff)" stroke-linejoin="round" stroke-linecap="butt" stroke-miterlimit="4" stroke-width="1.8824" d="M16 17.333v9.818c0 0.375 0 0.563-0.121 0.63s-0.28-0.032-0.599-0.231l-9.062-5.664c-0.433-0.27-0.649-0.405-0.767-0.618s-0.118-0.468-0.118-0.978v-9.623M16 17.333l-10.667-6.667M16 17.333l8.113-5.070c1.146-0.716 1.719-1.075 1.719-1.596s-0.573-0.88-1.719-1.596l-7.115-4.447c-0.485-0.303-0.728-0.455-0.998-0.455s-0.512 0.152-0.998 0.455l-9.669 6.043"></path>
<path fill="#aac4ff" style="fill: var(--color1, #aac4ff)" d="M25.726 16c0 0.52 0.421 0.941 0.941 0.941s0.941-0.421 0.941-0.941h-1.882zM25.782 10.114v0zM26.549 10.732v0zM25.726 11.71v4.29h1.882v-4.29h-1.882zM26.281 9.316l-4.449-2.78-0.998 1.596 4.449 2.78 0.998-1.596zM27.608 11.71c0-0.237 0.001-0.481-0.019-0.69-0.022-0.229-0.074-0.485-0.217-0.744l-1.646 0.913c-0.025-0.046-0.018-0.068-0.010 0.011 0.009 0.099 0.010 0.238 0.010 0.511h1.882zM25.283 10.912c0.231 0.145 0.349 0.219 0.428 0.28 0.063 0.048 0.040 0.043 0.015-0.003l1.646-0.913c-0.143-0.259-0.333-0.438-0.516-0.578-0.167-0.128-0.374-0.256-0.575-0.382l-0.998 1.596z"></path>
<path fill="none" stroke="#aac4ff" style="stroke: var(--color1, #aac4ff)" stroke-linejoin="miter" stroke-linecap="butt" stroke-miterlimit="4" stroke-width="1.8824" d="M26.667 22c0 1.841-1.492 3.333-3.333 3.333s-3.333-1.492-3.333-3.333c0-1.841 1.492-3.333 3.333-3.333s3.333 1.492 3.333 3.333z"></path>
<path fill="none" stroke="#aac4ff" style="stroke: var(--color1, #aac4ff)" stroke-linejoin="miter" stroke-linecap="round" stroke-miterlimit="4" stroke-width="1.8824" d="M28 26.667l-2-2"></path>
<path fill="#aac4ff" style="fill: var(--color1, #aac4ff)" d="M19.165 27.131c0.441-0.275 0.575-0.856 0.299-1.297s-0.856-0.575-1.297-0.299l0.998 1.596zM15.501 26.578l-4.336-2.71-0.998 1.596 4.336 2.71 0.998-1.596zM16.834 26.368l-0.336 0.21 0.998 1.596 0.336-0.21-0.998-1.596zM18.168 25.535l-0.667 0.417 0.998 1.596 0.667-0.417-0.998-1.596zM17.501 25.952l-0.667 0.417 0.998 1.596 0.667-0.417-0.998-1.596zM14.503 28.174c0.226 0.141 0.456 0.286 0.665 0.389 0.229 0.112 0.503 0.209 0.832 0.209v-1.882c0.059 0 0.076 0.022-0.005-0.018-0.101-0.049-0.235-0.132-0.494-0.294l-0.998 1.596zM16.499 26.578c-0.259 0.162-0.393 0.244-0.494 0.294-0.081 0.040-0.064 0.018-0.005 0.018v1.882c0.329 0 0.603-0.098 0.832-0.209 0.209-0.102 0.439-0.247 0.665-0.389l-0.998-1.596z"></path>
</symbol>
<symbol id="icon-wave_arrow" viewBox="0 0 34 32">
<path fill="#aac4ff" style="fill: var(--color1, #aac4ff)" d="M7.241 23.068c0.075 0.147 0.077 0.212 0.117 0.263 3.404 2.754 7.281 4.049 11.658 3.481 1.106-0.141 2.152-0.565 3.095-1.214 2.033-1.373 2.895-3.803 2.195-6.145-0.358-1.223-0.913-2.329-1.948-3.131-0.587 0.126-1.167 0.272-1.73 0.346-0.918 0.116-1.774-0.074-2.485-0.71-0.538-0.459-0.748-1.037-0.552-1.457 0.257-0.552 0.797-0.748 1.332-0.659 0.743 0.122 1.476 0.336 2.177 0.582 0.452 0.163 0.882 0.443 1.297 0.684 2.059-1.12 2.234-3.519 0.43-5.655-0.336 0.035-0.692 0.077-1.036 0.093-1.278 0.029-2.404-0.368-3.23-1.377-0.316-0.387-0.549-0.848-0.284-1.38 0.203-0.401 0.743-0.598 1.395-0.486 1.031 0.192 1.902 0.726 2.717 1.346 0.279 0.226 0.557 0.452 0.817 0.685 3.233-1.613 4.523-5.508 2.093-7.984 0.258-0.072 0.463-0.168 0.606-0.133 0.17 0.047 0.324 0.231 0.426 0.39 0.904 1.525 1.266 3.118 0.526 4.805-0.543 1.267-1.391 2.296-2.471 3.168-0.152 0.121-0.305 0.242-0.45 0.382-0.019 0.007-0.024 0.053-0.054 0.151 0.082 0.166 0.16 0.378 0.275 0.576 1.344 2.434 1.141 4.036-0.833 6.107 0.161 0.203 0.337 0.445 0.524 0.66 1.041 1.301 1.62 2.771 1.665 4.456 0.081 2.742-1.445 5.086-4.042 6.228-1.411 0.623-2.89 0.877-4.429 0.848-3.721-0.086-7.042-1.233-9.855-3.744-0.152-0.119-0.293-0.264-0.445-0.383-0.026-0.012-0.072-0.017-0.209-0.033 0.084 0.711 0.366 1.307 0.629 1.909 0.237 0.59 0.519 1.186 0.796 1.827-0.522 0.125-0.813-0.075-1.048-0.36-0.256-0.343-0.55-0.672-0.71-1.051-0.417-1.026-0.822-2.079-1.15-3.16-0.244-0.85 0.116-1.242 0.923-1.122 1.714 0.271 3.435 0.561 5.156 0.851 0.28 0.051 0.536 0.154 0.883 0.268-0.291 0.52-0.655 0.479-0.994 0.449-1.237-0.161-2.454-0.263-3.78-0.37zM19.067 7.156c0.657 1.266 1.807 1.786 3.023 1.409-0.901-0.676-1.73-1.334-3.023-1.409zM18.45 14.756c0.684 1.039 1.651 1.297 2.785 0.754-0.883-0.508-1.693-0.933-2.785-0.754z"></path>
</symbol>
</defs>
</svg>
