<svg width="27" height="13" viewBox="0 0 27 13" fill="none" xmlns="http://www.w3.org/2000/svg">
<path d="M6.608 12H4.192V5.392C4.192 5.21067 4.192 4.98667 4.192 4.72C4.20267 4.45333 4.21333 4.176 4.224 3.888C4.23467 3.6 4.24533 3.344 4.256 3.12C4.20267 3.184 4.08533 3.30133 3.904 3.472C3.73333 3.632 3.57333 3.776 3.424 3.904L2.112 4.96L0.944 3.504L4.624 0.575999H6.608V12ZM13.7323 0.431999C14.3936 0.431999 14.9963 0.533333 15.5403 0.735999C16.0949 0.938666 16.5376 1.24267 16.8683 1.648C17.2096 2.05333 17.3802 2.56533 17.3802 3.184C17.3802 3.64267 17.2896 4.048 17.1083 4.4C16.9269 4.74133 16.6816 5.04 16.3723 5.296C16.0736 5.552 15.7269 5.776 15.3323 5.968C15.7376 6.18133 16.1216 6.432 16.4843 6.72C16.8576 6.99733 17.1563 7.328 17.3802 7.712C17.6149 8.08533 17.7323 8.528 17.7323 9.04C17.7323 9.66933 17.5616 10.2187 17.2203 10.688C16.8896 11.1573 16.4203 11.52 15.8123 11.776C15.2149 12.032 14.5216 12.16 13.7323 12.16C12.8789 12.16 12.1536 12.0373 11.5563 11.792C10.9589 11.5467 10.5003 11.1947 10.1803 10.736C9.87092 10.2773 9.71625 9.73333 9.71625 9.104C9.71625 8.58133 9.81225 8.128 10.0043 7.744C10.2069 7.36 10.4736 7.02933 10.8043 6.752C11.1349 6.464 11.5029 6.224 11.9083 6.032C11.5669 5.81867 11.2576 5.57867 10.9803 5.312C10.7029 5.03467 10.4789 4.72533 10.3083 4.384C10.1483 4.032 10.0683 3.62667 10.0683 3.168C10.0683 2.56 10.2389 2.05333 10.5803 1.648C10.9216 1.24267 11.3696 0.938666 11.9243 0.735999C12.4896 0.533333 13.0923 0.431999 13.7323 0.431999ZM11.9563 8.96C11.9563 9.376 12.1003 9.71733 12.3883 9.984C12.6869 10.2507 13.1243 10.384 13.7003 10.384C14.1056 10.384 14.4363 10.3253 14.6923 10.208C14.9589 10.0907 15.1563 9.92533 15.2843 9.712C15.4229 9.49867 15.4923 9.25333 15.4923 8.976C15.4923 8.688 15.4069 8.43733 15.2363 8.224C15.0656 8 14.8523 7.80267 14.5963 7.632C14.3509 7.45067 14.0949 7.28533 13.8283 7.136L13.6203 7.024C13.2896 7.17333 12.9963 7.344 12.7403 7.536C12.4949 7.728 12.3029 7.94133 12.1643 8.176C12.0256 8.4 11.9563 8.66133 11.9563 8.96ZM13.7163 2.192C13.3216 2.192 12.9909 2.29333 12.7243 2.496C12.4683 2.69867 12.3403 2.98667 12.3403 3.36C12.3403 3.616 12.4043 3.84533 12.5323 4.048C12.6603 4.24 12.8309 4.41067 13.0443 4.56C13.2576 4.69867 13.4869 4.832 13.7323 4.96C13.9776 4.84267 14.2016 4.71467 14.4043 4.576C14.6176 4.43733 14.7883 4.272 14.9163 4.08C15.0443 3.87733 15.1083 3.63733 15.1083 3.36C15.1083 2.98667 14.9749 2.69867 14.7083 2.496C14.4523 2.29333 14.1216 2.192 13.7163 2.192ZM23.7365 5.504H26.7605V7.216H23.7365V10.224H22.0245V7.216H19.0005V5.504H22.0245V2.464H23.7365V5.504Z" fill="#AAC4FF"/>
</svg>
