<svg width="22" height="20" viewBox="0 0 22 20" fill="none" xmlns="http://www.w3.org/2000/svg">
<path d="M10.8801 18C10.9467 18 11.0133 17.9833 11.08 17.95C11.1466 17.9167 11.1966 17.8833 11.2299 17.85L19.4262 9.65C19.6261 9.45 19.7718 9.225 19.8635 8.975C19.9551 8.725 20.0009 8.475 20.0009 8.225C20.0009 7.95833 19.9551 7.70417 19.8635 7.4625C19.7718 7.22083 19.6261 7.00833 19.4262 6.825L15.1781 2.575C14.9949 2.375 14.7824 2.22917 14.5409 2.1375C14.2993 2.04583 14.0453 2 13.7787 2C13.5289 2 13.279 2.04583 13.0291 2.1375C12.7792 2.22917 12.5543 2.375 12.3544 2.575L12.0795 2.85L13.9287 4.725C14.1786 4.95833 14.3618 5.225 14.4784 5.525C14.595 5.825 14.6533 6.14167 14.6533 6.475C14.6533 7.175 14.4159 7.7625 13.9412 8.2375C13.4664 8.7125 12.8791 8.95 12.1795 8.95C11.8463 8.95 11.5256 8.89167 11.2174 8.775C10.9092 8.65833 10.6385 8.48333 10.4053 8.25L8.53112 6.4L4.15811 10.775C4.10813 10.825 4.07065 10.8792 4.04566 10.9375C4.02067 10.9958 4.00818 11.0583 4.00818 11.125C4.00818 11.2583 4.05816 11.3792 4.15811 11.4875C4.25806 11.5958 4.37468 11.65 4.50795 11.65C4.57459 11.65 4.64122 11.6333 4.70786 11.6C4.7745 11.5667 4.82447 11.5333 4.85779 11.5L8.25625 8.1L9.65561 9.5L6.28214 12.9C6.23217 12.95 6.19468 13.0042 6.16969 13.0625C6.14471 13.1208 6.13221 13.1833 6.13221 13.25C6.13221 13.3833 6.18219 13.5 6.28214 13.6C6.3821 13.7 6.49871 13.75 6.63198 13.75C6.69862 13.75 6.76526 13.7333 6.83189 13.7C6.89853 13.6667 6.94851 13.6333 6.98183 13.6L10.3803 10.225L11.7796 11.625L8.40618 15.025C8.3562 15.0583 8.31872 15.1083 8.29373 15.175C8.26874 15.2417 8.25625 15.3083 8.25625 15.375C8.25625 15.5083 8.30622 15.625 8.40618 15.725C8.50613 15.825 8.62275 15.875 8.75602 15.875C8.82266 15.875 8.88513 15.8625 8.94343 15.8375C9.00174 15.8125 9.05588 15.775 9.10586 15.725L12.5043 12.35L13.9037 13.75L10.5052 17.15C10.4552 17.2 10.4178 17.2542 10.3928 17.3125C10.3678 17.3708 10.3553 17.4333 10.3553 17.5C10.3553 17.6333 10.4094 17.75 10.5177 17.85C10.626 17.95 10.7468 18 10.8801 18ZM10.8551 20C10.2387 20 9.69309 19.7958 9.21831 19.3875C8.74352 18.9792 8.46449 18.4667 8.38119 17.85C7.81478 17.7667 7.34 17.5333 6.95684 17.15C6.57368 16.7667 6.34045 16.2917 6.25716 15.725C5.69075 15.6417 5.22013 15.4042 4.8453 15.0125C4.47047 14.6208 4.24141 14.15 4.15811 13.6C3.52506 13.5167 3.00863 13.2417 2.60881 12.775C2.209 12.3083 2.00909 11.7583 2.00909 11.125C2.00909 10.7917 2.07156 10.4708 2.1965 10.1625C2.32144 9.85417 2.50053 9.58333 2.73376 9.35L8.53112 3.575L11.8046 6.85C11.838 6.9 11.8879 6.9375 11.9546 6.9625C12.0212 6.9875 12.0878 7 12.1545 7C12.3044 7 12.4293 6.95417 12.5293 6.8625C12.6293 6.77083 12.6792 6.65 12.6792 6.5C12.6792 6.43333 12.6667 6.36667 12.6418 6.3C12.6168 6.23333 12.5793 6.18333 12.5293 6.15L8.95593 2.575C8.77268 2.375 8.56028 2.22917 8.31872 2.1375C8.07716 2.04583 7.82311 2 7.55656 2C7.30668 2 7.05679 2.04583 6.80691 2.1375C6.55702 2.22917 6.33212 2.375 6.13221 2.575L2.60881 6.125C2.45888 6.275 2.33394 6.45 2.23398 6.65C2.13403 6.85 2.06739 7.05 2.03408 7.25C2.00076 7.45 2.00076 7.65417 2.03408 7.8625C2.06739 8.07083 2.13403 8.26667 2.23398 8.45L0.784643 9.9C0.501439 9.51667 0.2932 9.09583 0.159927 8.6375C0.0266545 8.17917 -0.0233227 7.71667 0.00999546 7.25C0.0433136 6.78333 0.159927 6.32917 0.359836 5.8875C0.559746 5.44583 0.834621 5.05 1.18446 4.7L4.70786 1.175C5.10768 0.791667 5.55331 0.5 6.04475 0.3C6.5362 0.1 7.04013 0 7.55656 0C8.073 0 8.57693 0.1 9.06838 0.3C9.55982 0.5 9.99712 0.791667 10.3803 1.175L10.6552 1.45L10.93 1.175C11.3298 0.791667 11.7755 0.5 12.2669 0.3C12.7584 0.1 13.2623 0 13.7787 0C14.2952 0 14.7991 0.1 15.2905 0.3C15.782 0.5 16.2193 0.791667 16.6025 1.175L20.8255 5.4C21.2087 5.78333 21.5002 6.225 21.7001 6.725C21.9 7.225 22 7.73333 22 8.25C22 8.76667 21.9 9.27083 21.7001 9.7625C21.5002 10.2542 21.2087 10.6917 20.8255 11.075L12.6293 19.25C12.396 19.4833 12.1253 19.6667 11.8171 19.8C11.5089 19.9333 11.1882 20 10.8551 20Z" fill="#AAC4FF"/>
</svg>
