<svg width="20" height="20" viewBox="0 0 20 20" fill="none" xmlns="http://www.w3.org/2000/svg">
<path d="M0 20L4.64037 6.34146L12.993 15.122L0 20ZM3.06265 16.7805L9.60557 14.3415L5.38283 9.90244L3.06265 16.7805ZM11.6473 10.7805L10.6729 9.7561L15.8701 4.29268C16.365 3.77236 16.9606 3.5122 17.6566 3.5122C18.3527 3.5122 18.9482 3.77236 19.4432 4.29268L20 4.87805L19.0255 5.90244L18.4687 5.31707C18.2521 5.08943 17.9814 4.97561 17.6566 4.97561C17.3318 4.97561 17.0611 5.08943 16.8445 5.31707L11.6473 10.7805ZM7.93504 6.87805L6.96056 5.85366L7.5174 5.26829C7.73395 5.04065 7.84223 4.76423 7.84223 4.43902C7.84223 4.11382 7.73395 3.8374 7.5174 3.60976L6.91415 2.97561L7.88863 1.95122L8.49188 2.58537C8.98685 3.10569 9.23434 3.72358 9.23434 4.43902C9.23434 5.15447 8.98685 5.77236 8.49188 6.29268L7.93504 6.87805ZM9.79118 8.82927L8.81671 7.80488L12.1578 4.29268C12.3743 4.06504 12.4826 3.78049 12.4826 3.43902C12.4826 3.09756 12.3743 2.81301 12.1578 2.58537L10.6729 1.02439L11.6473 0L13.1323 1.56098C13.6272 2.0813 13.8747 2.70732 13.8747 3.43902C13.8747 4.17073 13.6272 4.79675 13.1323 5.31707L9.79118 8.82927ZM13.5035 12.7317L12.529 11.7073L14.0139 10.1463C14.5089 9.62602 15.1044 9.36585 15.8005 9.36585C16.4965 9.36585 17.092 9.62602 17.587 10.1463L19.0719 11.7073L18.0974 12.7317L16.6125 11.1707C16.396 10.9431 16.1253 10.8293 15.8005 10.8293C15.4756 10.8293 15.205 10.9431 14.9884 11.1707L13.5035 12.7317Z" fill="#AAC4FF"/>
</svg>
