<svg width="19" height="19" viewBox="0 0 19 19" fill="none" xmlns="http://www.w3.org/2000/svg">
<path d="M1.39668 15.0963C1.43497 14.7517 1.45411 14.5794 1.50624 14.4184C1.55249 14.2755 1.61784 14.1396 1.70051 14.0142C1.79369 13.8729 1.91627 13.7503 2.16142 13.5052L13.1667 2.49992C14.0871 1.57945 15.5795 1.57945 16.5 2.49993C17.4205 3.4204 17.4205 4.91279 16.5 5.83326L5.49475 16.8385C5.2496 17.0836 5.12702 17.2062 4.98572 17.2994C4.86035 17.3821 4.72439 17.4474 4.58152 17.4937C4.42048 17.5458 4.24819 17.5649 3.90362 17.6032L1.08331 17.9166L1.39668 15.0963Z" stroke="#AAC4FF" stroke-width="2" stroke-linecap="round" stroke-linejoin="round"/>
</svg>
