<svg width="20" height="20" viewBox="0 0 20 20" fill="none" xmlns="http://www.w3.org/2000/svg">
<path d="M1.99616 17.6573L1.14779 17.2902C0.632118 17.0629 0.286948 16.6696 0.112284 16.1101C-0.06238 15.5507 -0.0332693 15 0.199616 14.458L1.99616 10.3671V17.6573ZM5.98848 19.965C5.43954 19.965 4.96961 19.7596 4.57869 19.3488C4.18778 18.9379 3.99232 18.4441 3.99232 17.8671V11.5734L6.63724 19.2832C6.68714 19.4056 6.73704 19.5236 6.78695 19.6372C6.83685 19.7509 6.90339 19.8601 6.98656 19.965H5.98848ZM11.1286 19.8601C10.5963 20.0699 10.0806 20.0437 9.58157 19.7815C9.08253 19.5192 8.73321 19.1084 8.53359 18.549L4.09213 5.75175C3.89251 5.19231 3.90915 4.64598 4.14203 4.11276C4.37492 3.57955 4.75752 3.21678 5.28983 3.02448L12.8253 0.13986C13.3576 -0.0699301 13.8733 -0.0437063 14.3724 0.218531C14.8714 0.480769 15.2207 0.891608 15.4203 1.45105L19.8618 14.2483C20.0614 14.8077 20.0448 15.354 19.8119 15.8872C19.579 16.4205 19.1964 16.7832 18.6641 16.9755L11.1286 19.8601ZM8.98273 7.37762C9.26551 7.37762 9.50256 7.2771 9.69386 7.07605C9.88516 6.875 9.98081 6.62587 9.98081 6.32867C9.98081 6.03147 9.88516 5.78234 9.69386 5.58129C9.50256 5.38024 9.26551 5.27972 8.98273 5.27972C8.69994 5.27972 8.46289 5.38024 8.27159 5.58129C8.08029 5.78234 7.98464 6.03147 7.98464 6.32867C7.98464 6.62587 8.08029 6.875 8.27159 7.07605C8.46289 7.2771 8.69994 7.37762 8.98273 7.37762ZM10.4299 17.8671L17.9655 14.9825L13.524 2.13287L5.98848 5.01748L10.4299 17.8671Z" fill="#AAC4FF"/>
</svg>
