<svg width="20" height="20" viewBox="0 0 20 20" fill="none" xmlns="http://www.w3.org/2000/svg">
<path d="M9 16C10.9333 16 12.5833 15.3208 13.95 13.9625C15.3167 12.6042 16 10.95 16 9C16 7.06667 15.3167 5.41667 13.95 4.05C12.5833 2.68333 10.9333 2 9 2C7.05 2 5.39583 2.68333 4.0375 4.05C2.67917 5.41667 2 7.06667 2 9C2 10.95 2.67917 12.6042 4.0375 13.9625C5.39583 15.3208 7.05 16 9 16ZM9 13C7.61667 13 6.3875 12.6292 5.3125 11.8875C4.2375 11.1458 3.46667 10.1833 3 9C3.46667 7.83333 4.2375 6.875 5.3125 6.125C6.3875 5.375 7.61667 5 9 5C10.3667 5 11.5875 5.375 12.6625 6.125C13.7375 6.875 14.5167 7.83333 15 9C14.5167 10.1833 13.7375 11.1458 12.6625 11.8875C11.5875 12.6292 10.3667 13 9 13ZM9 11.5C9.91667 11.5 10.7583 11.2792 11.525 10.8375C12.2917 10.3958 12.8917 9.78333 13.325 9C12.8917 8.23333 12.2917 7.625 11.525 7.175C10.7583 6.725 9.91667 6.5 9 6.5C8.06667 6.5 7.21667 6.725 6.45 7.175C5.68333 7.625 5.08333 8.23333 4.65 9C5.08333 9.78333 5.68333 10.3958 6.45 10.8375C7.21667 11.2792 8.06667 11.5 9 11.5ZM9 10.5C9.41667 10.5 9.77083 10.3583 10.0625 10.075C10.3542 9.79167 10.5 9.43333 10.5 9C10.5 8.58333 10.3542 8.22917 10.0625 7.9375C9.77083 7.64583 9.41667 7.5 9 7.5C8.56667 7.5 8.20833 7.64583 7.925 7.9375C7.64167 8.22917 7.5 8.58333 7.5 9C7.5 9.43333 7.64167 9.79167 7.925 10.075C8.20833 10.3583 8.56667 10.5 9 10.5ZM9 18C7.75 18 6.57917 17.7625 5.4875 17.2875C4.39583 16.8125 3.44583 16.1708 2.6375 15.3625C1.82917 14.5542 1.1875 13.6042 0.7125 12.5125C0.2375 11.4208 0 10.25 0 9C0 7.76667 0.2375 6.60417 0.7125 5.5125C1.1875 4.42083 1.82917 3.46667 2.6375 2.65C3.44583 1.83333 4.39583 1.1875 5.4875 0.7125C6.57917 0.2375 7.75 0 9 0C10.2333 0 11.3958 0.2375 12.4875 0.7125C13.5792 1.1875 14.5333 1.83333 15.35 2.65C16.1667 3.46667 16.8125 4.42083 17.2875 5.5125C17.7625 6.60417 18 7.76667 18 9C18 10.0667 17.825 11.075 17.475 12.025C17.125 12.975 16.6417 13.8417 16.025 14.625L20 18.6L18.575 20L14.6 16.05C13.8167 16.6667 12.95 17.1458 12 17.4875C11.05 17.8292 10.05 18 9 18Z" fill="#AAC4FF"/>
</svg>
