<svg width="24" height="24" viewBox="0 0 24 24" fill="none" xmlns="http://www.w3.org/2000/svg">
<path d="M2.18994 15.56C1.99183 15.5574 1.80257 15.4776 1.66248 15.3375C1.52238 15.1974 1.44253 15.0081 1.43994 14.81V11.52C1.43994 11.3211 1.51896 11.1303 1.65961 10.9897C1.80026 10.849 1.99103 10.77 2.18994 10.77C2.38885 10.77 2.57962 10.849 2.72027 10.9897C2.86092 11.1303 2.93994 11.3211 2.93994 11.52V14.81C2.93994 15.0089 2.86092 15.1997 2.72027 15.3403C2.57962 15.481 2.38885 15.56 2.18994 15.56Z" fill="#AAC4FF"/>
<path d="M11.9999 16.9999C6.07994 16.9999 1.43994 14.0899 1.43994 10.3499C1.43994 6.60994 6.07994 3.68994 11.9999 3.68994C17.9199 3.68994 22.5499 6.60994 22.5499 10.3499C22.5499 14.0899 17.9199 16.9999 11.9999 16.9999ZM11.9999 5.18994C7.08994 5.18994 2.93994 7.54994 2.93994 10.3499C2.93994 13.1499 7.08994 15.5199 11.9999 15.5199C16.9099 15.5199 21.0499 13.1499 21.0499 10.3499C21.0499 7.54994 16.9099 5.18994 11.9999 5.18994Z" fill="#AAC4FF"/>
<path d="M12 20.3199C6.08995 20.3199 1.44995 17.3899 1.44995 13.6499C1.44995 13.451 1.52897 13.2602 1.66962 13.1196C1.81027 12.9789 2.00104 12.8999 2.19995 12.8999C2.39886 12.8999 2.58963 12.9789 2.73028 13.1196C2.87093 13.2602 2.94995 13.451 2.94995 13.6499C2.94995 16.4499 7.09995 18.8199 12 18.8199C16.9 18.8199 20.94 16.5499 21.07 13.7699V13.6499C21.07 13.451 21.149 13.2602 21.2896 13.1196C21.4303 12.9789 21.621 12.8999 21.82 12.8999C22.0189 12.8999 22.2096 12.9789 22.3503 13.1196C22.4909 13.2602 22.57 13.451 22.57 13.6499V13.8099C22.3899 17.4699 17.76 20.3199 12 20.3199Z" fill="#AAC4FF"/>
<path d="M21.7999 14.5601C21.6018 14.5575 21.4126 14.4777 21.2725 14.3376C21.1324 14.1975 21.0525 14.0082 21.0499 13.8101V10.3501C21.0499 10.1512 21.1289 9.96042 21.2696 9.81977C21.4103 9.67911 21.601 9.6001 21.7999 9.6001C21.9988 9.6001 22.1896 9.67911 22.3303 9.81977C22.4709 9.96042 22.5499 10.1512 22.5499 10.3501V13.8101C22.5499 13.9086 22.5305 14.0061 22.4928 14.0971C22.4551 14.1881 22.3999 14.2708 22.3303 14.3404C22.2606 14.4101 22.1779 14.4653 22.0869 14.503C21.9959 14.5407 21.8984 14.5601 21.7999 14.5601Z" fill="#AAC4FF"/>
</svg>
