<svg width="24" height="24" viewBox="0 0 24 24" fill="none" xmlns="http://www.w3.org/2000/svg">
<path d="M12 17.3302C11.879 17.3287 11.7597 17.3014 11.65 17.2502C11.51 17.1702 8.11002 15.3602 7.38002 12.8702C7.1592 12.2494 7.08227 11.5866 7.15502 10.9318C7.22778 10.277 7.44833 9.64728 7.80002 9.09016C8.06226 8.74361 8.40289 8.46415 8.79399 8.27468C9.18509 8.08521 9.61553 7.99113 10.05 8.00016C10.4156 7.9906 10.7789 8.05977 11.1153 8.20298C11.4518 8.34619 11.7535 8.56008 12 8.83016C12.2521 8.55353 12.5619 8.33576 12.9075 8.19232C13.2532 8.04888 13.6262 7.98327 14 8.00016C14.4261 7.99899 14.8466 8.09685 15.2284 8.28601C15.6102 8.47517 15.9428 8.75046 16.2 9.09016C16.5517 9.64728 16.7723 10.277 16.845 10.9318C16.9178 11.5866 16.8408 12.2494 16.62 12.8702C15.89 15.3602 12.49 17.1702 12.35 17.2502C12.2404 17.3014 12.1211 17.3287 12 17.3302ZM10.05 9.51016C9.8481 9.49839 9.64642 9.53701 9.46314 9.62255C9.27985 9.70808 9.1207 9.83784 9.00002 10.0002C8.79234 10.3722 8.66862 10.7852 8.63752 11.2102C8.60643 11.6352 8.66872 12.0618 8.82002 12.4602C9.22002 13.8402 11.01 15.1402 12 15.7302C13 15.1402 14.78 13.8402 15.18 12.4602C15.3313 12.0618 15.3936 11.6352 15.3625 11.2102C15.3314 10.7852 15.2077 10.3722 15 10.0002C14.8842 9.84498 14.7331 9.71961 14.5592 9.6344C14.3853 9.5492 14.1936 9.50661 14 9.51016C13.8412 9.5088 13.6837 9.53924 13.5369 9.5997C13.39 9.66015 13.2567 9.74939 13.1449 9.86215C13.0331 9.97492 12.9449 10.1089 12.8857 10.2563C12.8265 10.4036 12.7973 10.5614 12.8 10.7202C12.8 10.9191 12.721 11.1098 12.5804 11.2505C12.4397 11.3911 12.2489 11.4702 12.05 11.4702C11.8511 11.4702 11.6603 11.3911 11.5197 11.2505C11.379 11.1098 11.3 10.9191 11.3 10.7202C11.3045 10.5566 11.2749 10.3939 11.2131 10.2425C11.1513 10.091 11.0587 9.95399 10.9412 9.84021C10.8236 9.72643 10.6837 9.63833 10.5303 9.58151C10.3769 9.52469 10.2133 9.50039 10.05 9.51016Z" fill="#AAC4FF"/>
<path d="M12 21.75C10.0721 21.748 8.18799 21.1745 6.58593 20.102C4.98387 19.0294 3.73574 17.506 2.99932 15.7242C2.2629 13.9425 2.07124 11.9824 2.44858 10.0917C2.82591 8.20109 3.7553 6.46474 5.11926 5.10218C6.48322 3.73962 8.22052 2.81201 10.1116 2.43662C12.0026 2.06122 13.9625 2.25489 15.7435 2.99313C17.5245 3.73138 19.0466 4.98107 20.1175 6.58423C21.1884 8.18739 21.76 10.0721 21.76 12C21.7574 14.5868 20.7279 17.0667 18.8978 18.8949C17.0678 20.7231 14.5868 21.75 12 21.75ZM12 3.75C10.3687 3.75198 8.77468 4.23751 7.41929 5.14523C6.0639 6.05296 5.00803 7.34212 4.38514 8.84978C3.76225 10.3574 3.6003 12.0159 3.91976 13.6156C4.23921 15.2153 5.02574 16.6844 6.17992 17.8372C7.3341 18.9899 8.80412 19.7747 10.4042 20.0922C12.0043 20.4097 13.6626 20.2458 15.1695 19.621C16.6764 18.9963 17.9642 17.9389 18.8703 16.5824C19.7764 15.2259 20.26 13.6313 20.26 12C20.2574 9.81104 19.3859 7.71265 17.8372 6.16576C16.2884 4.61887 14.189 3.75 12 3.75Z" fill="#AAC4FF"/>
</svg>
