<svg width="24" height="24" viewBox="0 0 24 24" fill="none" xmlns="http://www.w3.org/2000/svg">
<path d="M20 22.7498C19.8012 22.7497 19.6105 22.6705 19.47 22.5298L16 19.0598L12.53 22.5298C12.3894 22.6703 12.1988 22.7492 12 22.7492C11.8013 22.7492 11.6106 22.6703 11.47 22.5298L8.00002 19.0598L4.53002 22.5298C4.42462 22.6348 4.29037 22.7061 4.14436 22.7346C3.99834 22.7631 3.84715 22.7475 3.71002 22.6898C3.5732 22.6339 3.45627 22.5383 3.37428 22.4153C3.2923 22.2923 3.24902 22.1476 3.25002 21.9998V1.99983C3.25015 1.85159 3.2942 1.70671 3.37662 1.5835C3.45904 1.46028 3.57613 1.36425 3.71309 1.30754C3.85006 1.25083 4.00075 1.23598 4.14615 1.26486C4.29155 1.29375 4.42513 1.36507 4.53002 1.46983L8.00002 4.93983L11.47 1.46983C11.6106 1.32938 11.8013 1.25049 12 1.25049C12.1988 1.25049 12.3894 1.32938 12.53 1.46983L16 4.93983L19.47 1.46983C19.5749 1.36507 19.7085 1.29375 19.8539 1.26486C19.9993 1.23598 20.15 1.25083 20.2869 1.30754C20.4239 1.36425 20.541 1.46028 20.6234 1.5835C20.7058 1.70671 20.7499 1.85159 20.75 1.99983V21.9998C20.751 22.1476 20.7077 22.2923 20.6258 22.4153C20.5438 22.5383 20.4268 22.6339 20.29 22.6898C20.1983 22.7289 20.0997 22.7493 20 22.7498ZM8.00002 17.2498C8.09856 17.2494 8.1962 17.2686 8.28721 17.3064C8.37822 17.3441 8.46077 17.3997 8.53002 17.4698L12 20.9398L15.47 17.4698C15.6106 17.3294 15.8013 17.2505 16 17.2505C16.1988 17.2505 16.3894 17.3294 16.53 17.4698L19.25 20.1898V3.80983L16.53 6.52983C16.3894 6.67028 16.1988 6.74917 16 6.74917C15.8013 6.74917 15.6106 6.67028 15.47 6.52983L12 3.05983L8.53002 6.52983C8.38939 6.67028 8.19877 6.74917 8.00002 6.74917C7.80127 6.74917 7.61064 6.67028 7.47002 6.52983L4.75002 3.80983V20.1898L7.47002 17.4698C7.53926 17.3997 7.62181 17.3441 7.71282 17.3064C7.80384 17.2686 7.90148 17.2494 8.00002 17.2498Z" fill="#AAC4FF"/>
<path d="M16 10.25H8C7.80109 10.25 7.61032 10.171 7.46967 10.0303C7.32902 9.88968 7.25 9.69891 7.25 9.5C7.25 9.30109 7.32902 9.11032 7.46967 8.96967C7.61032 8.82902 7.80109 8.75 8 8.75H16C16.1989 8.75 16.3897 8.82902 16.5303 8.96967C16.671 9.11032 16.75 9.30109 16.75 9.5C16.75 9.69891 16.671 9.88968 16.5303 10.0303C16.3897 10.171 16.1989 10.25 16 10.25Z" fill="#AAC4FF"/>
<path d="M16 15.25H8C7.80109 15.25 7.61032 15.171 7.46967 15.0303C7.32902 14.8897 7.25 14.6989 7.25 14.5C7.25 14.3011 7.32902 14.1103 7.46967 13.9697C7.61032 13.829 7.80109 13.75 8 13.75H16C16.1989 13.75 16.3897 13.829 16.5303 13.9697C16.671 14.1103 16.75 14.3011 16.75 14.5C16.75 14.6989 16.671 14.8897 16.5303 15.0303C16.3897 15.171 16.1989 15.25 16 15.25Z" fill="#AAC4FF"/>
</svg>
