<svg width="24" height="24" viewBox="0 0 24 24" fill="none" xmlns="http://www.w3.org/2000/svg">
<path d="M12 18.4598C11.802 18.4555 11.6129 18.377 11.47 18.2398L5.77003 12.5298C5.64495 12.3933 5.57556 12.2149 5.57556 12.0298C5.57556 11.8447 5.64495 11.6663 5.77003 11.5298L14.16 2.99979C14.3006 2.85909 14.4912 2.77996 14.69 2.77979H20.44C20.6372 2.77977 20.8265 2.85741 20.9669 2.99591C21.1072 3.1344 21.1874 3.32261 21.19 3.51979L21.25 9.19979C21.2503 9.40167 21.1713 9.59559 21.03 9.73979L12.52 18.2498C12.3804 18.3844 12.194 18.4597 12 18.4598ZM7.35003 11.9998L12 16.6398L19.76 8.88979L19.7 4.26979L15 4.24979L7.35003 11.9998Z" fill="#AAC4FF"/>
<path d="M14.79 21.2496C14.6914 21.25 14.5938 21.2308 14.5028 21.193C14.4118 21.1552 14.3292 21.0997 14.26 21.0296L2.99997 9.73956C2.90858 9.5986 2.86716 9.43104 2.88234 9.26374C2.89753 9.09644 2.96845 8.93907 3.08373 8.81688C3.19901 8.69468 3.35197 8.61473 3.51811 8.58983C3.68425 8.56493 3.85393 8.59653 3.99997 8.67956L15.32 19.9996C15.4604 20.1402 15.5393 20.3308 15.5393 20.5296C15.5393 20.7283 15.4604 20.9189 15.32 21.0596C15.2486 21.1247 15.165 21.1751 15.074 21.2077C14.983 21.2403 14.8865 21.2546 14.79 21.2496Z" fill="#AAC4FF"/>
<path d="M6.99999 21.1898C6.89539 21.2006 6.78971 21.1892 6.68979 21.1565C6.58986 21.1238 6.49794 21.0704 6.41999 20.9998L2.99999 17.5498C2.92882 17.4772 2.87274 17.3912 2.83498 17.2968C2.79722 17.2024 2.77853 17.1015 2.77999 16.9998C2.77999 16.5898 2.77999 16.5798 6.88999 12.5798C7.0332 12.4406 7.22587 12.364 7.42559 12.3668C7.62532 12.3696 7.81575 12.4516 7.95499 12.5948C8.09422 12.7381 8.17087 12.9307 8.16806 13.1304C8.16524 13.3302 8.0832 13.5206 7.93999 13.6598C6.65999 14.9098 5.25999 16.2898 4.56999 16.9998L6.99999 19.3798L10.31 15.9998C10.3789 15.9291 10.4613 15.8729 10.5524 15.8345C10.6434 15.7961 10.7412 15.7763 10.84 15.7763C10.9388 15.7763 11.0366 15.7961 11.1276 15.8345C11.2186 15.8729 11.301 15.9291 11.37 15.9998C11.5104 16.1405 11.5893 16.3311 11.5893 16.5298C11.5893 16.7286 11.5104 16.9192 11.37 17.0598L7.47999 20.9998C7.34578 21.1151 7.17675 21.182 6.99999 21.1898Z" fill="#AAC4FF"/>
<path d="M12 12.7497C11.9014 12.7501 11.8038 12.7309 11.7128 12.6931C11.6217 12.6554 11.5392 12.5998 11.47 12.5297C11.3295 12.389 11.2506 12.1984 11.2506 11.9997C11.2506 11.8009 11.3295 11.6103 11.47 11.4697L15.47 7.46966C15.5386 7.39598 15.6214 7.33688 15.7134 7.29588C15.8054 7.25489 15.9047 7.23285 16.0054 7.23107C16.1061 7.2293 16.2062 7.24782 16.2995 7.28554C16.3929 7.32326 16.4778 7.37941 16.549 7.45063C16.6202 7.52185 16.6764 7.60668 16.7141 7.70007C16.7518 7.79346 16.7703 7.89348 16.7685 7.99419C16.7668 8.09489 16.7447 8.1942 16.7037 8.2862C16.6627 8.3782 16.6036 8.461 16.53 8.52966L12.53 12.5297C12.4607 12.5998 12.3782 12.6554 12.2871 12.6931C12.1961 12.7309 12.0985 12.7501 12 12.7497Z" fill="#AAC4FF"/>
</svg>
