<svg width="24" height="24" viewBox="0 0 24 24" fill="none" xmlns="http://www.w3.org/2000/svg">
<path d="M17.66 21.9999H6.33996C5.24462 21.9999 4.19413 21.5648 3.41961 20.7903C2.64508 20.0157 2.20996 18.9652 2.20996 17.8699V6.5299C2.20996 5.43456 2.64508 4.38408 3.41961 3.60955C4.19413 2.83503 5.24462 2.3999 6.33996 2.3999H17.66C18.7553 2.3999 19.8058 2.83503 20.5803 3.60955C21.3548 4.38408 21.79 5.43456 21.79 6.5299V17.8499C21.7926 18.3939 21.6877 18.9331 21.4813 19.4365C21.275 19.9399 20.9712 20.3976 20.5874 20.7832C20.2036 21.1688 19.7475 21.4748 19.2451 21.6836C18.7427 21.8924 18.204 21.9999 17.66 21.9999ZM6.33996 3.8999C5.64244 3.8999 4.97349 4.17699 4.48027 4.67021C3.98705 5.16343 3.70996 5.83238 3.70996 6.5299V17.8499C3.70996 18.5474 3.98705 19.2164 4.48027 19.7096C4.97349 20.2028 5.64244 20.4799 6.33996 20.4799H17.66C18.3575 20.4799 19.0264 20.2028 19.5197 19.7096C20.0129 19.2164 20.29 18.5474 20.29 17.8499V6.5299C20.29 6.18453 20.2219 5.84253 20.0898 5.52344C19.9576 5.20436 19.7639 4.91443 19.5197 4.67021C19.2754 4.42599 18.9855 4.23227 18.6664 4.1001C18.3473 3.96793 18.0053 3.8999 17.66 3.8999H6.33996Z" fill="#AAC4FF"/>
<path d="M18.1299 12.1399C17.9318 12.1373 17.7426 12.0574 17.6025 11.9173C17.4624 11.7772 17.3825 11.588 17.3799 11.3899C17.3502 11.0377 17.1893 10.7096 16.9291 10.4704C16.6689 10.2312 16.3284 10.0985 15.9749 10.0985C15.6215 10.0985 15.281 10.2312 15.0208 10.4704C14.7606 10.7096 14.5997 11.0377 14.5699 11.3899C14.5699 11.5888 14.4909 11.7796 14.3503 11.9202C14.2096 12.0609 14.0189 12.1399 13.8199 12.1399C13.621 12.1399 13.4303 12.0609 13.2896 11.9202C13.149 11.7796 13.0699 11.5888 13.0699 11.3899C13.1134 10.6489 13.4384 9.95253 13.9785 9.44328C14.5185 8.93403 15.2327 8.65039 15.9749 8.65039C16.7172 8.65039 17.4314 8.93403 17.9714 9.44328C18.5114 9.95253 18.8365 10.6489 18.8799 11.3899C18.8774 11.588 18.7975 11.7772 18.6574 11.9173C18.5173 12.0574 18.3281 12.1373 18.1299 12.1399Z" fill="#AAC4FF"/>
<path d="M10.3399 12.1397C10.1418 12.1372 9.95255 12.0573 9.81245 11.9172C9.67236 11.7771 9.59251 11.5879 9.58992 11.3897C9.58992 11.0184 9.44242 10.6623 9.17987 10.3998C8.91732 10.1372 8.56122 9.98975 8.18992 9.98975C7.81861 9.98975 7.46252 10.1372 7.19997 10.3998C6.93742 10.6623 6.78992 11.0184 6.78992 11.3897C6.78992 11.5887 6.7109 11.7794 6.57025 11.9201C6.42959 12.0607 6.23883 12.1397 6.03992 12.1397C5.841 12.1397 5.65024 12.0607 5.50959 11.9201C5.36893 11.7794 5.28992 11.5887 5.28992 11.3897C5.28992 10.6206 5.59545 9.88299 6.13931 9.33914C6.68316 8.79528 7.42079 8.48975 8.18992 8.48975C8.95904 8.48975 9.69667 8.79528 10.2405 9.33914C10.7844 9.88299 11.0899 10.6206 11.0899 11.3897C11.0899 11.5887 11.0109 11.7794 10.8702 11.9201C10.7296 12.0607 10.5388 12.1397 10.3399 12.1397Z" fill="#AAC4FF"/>
<path d="M15.9999 17.6201H8.18994C7.99103 17.6201 7.80026 17.5411 7.65961 17.4004C7.51896 17.2598 7.43994 17.069 7.43994 16.8701C7.43994 16.6712 7.51896 16.4804 7.65961 16.3398C7.80026 16.1991 7.99103 16.1201 8.18994 16.1201H15.9999C16.1989 16.1201 16.3896 16.1991 16.5303 16.3398C16.6709 16.4804 16.7499 16.6712 16.7499 16.8701C16.7499 17.069 16.6709 17.2598 16.5303 17.4004C16.3896 17.5411 16.1989 17.6201 15.9999 17.6201Z" fill="#AAC4FF"/>
</svg>
