<svg width="24" height="24" viewBox="0 0 24 24" fill="none" xmlns="http://www.w3.org/2000/svg">
<path d="M12 14.7902C11.8789 14.7888 11.7596 14.7615 11.65 14.7102C11.5 14.6302 7.99997 12.7102 7.24997 10.2002C7.02043 9.56195 6.93984 8.87964 7.01437 8.20544C7.08889 7.53123 7.31656 6.88299 7.67997 6.31024C7.95034 5.95452 8.30219 5.66893 8.70591 5.47751C9.10964 5.28609 9.55344 5.19443 9.99997 5.21024C10.3748 5.19993 10.7475 5.27051 11.0926 5.41719C11.4378 5.56387 11.7472 5.7832 12 6.06024C12.2527 5.7832 12.5622 5.56387 12.9073 5.41719C13.2524 5.27051 13.6251 5.19993 14 5.21024C14.4432 5.19765 14.883 5.29087 15.283 5.48217C15.6829 5.67346 16.0316 5.95733 16.3 6.31024C16.6634 6.88299 16.891 7.53123 16.9656 8.20544C17.0401 8.87964 16.9595 9.56195 16.73 10.2002C15.98 12.7602 12.48 14.6302 12.33 14.7102C12.2265 14.7588 12.1142 14.786 12 14.7902ZM9.99997 6.71024C9.78941 6.69475 9.57833 6.73242 9.38612 6.81979C9.19392 6.90715 9.02675 7.04142 8.89997 7.21024C8.67935 7.5976 8.54782 8.02924 8.51496 8.4738C8.48209 8.91836 8.54871 9.36466 8.70997 9.78024C9.12997 11.2202 11 12.5802 12.02 13.1802C13.02 12.5702 14.91 11.1802 15.33 9.78024C15.4912 9.36466 15.5578 8.91836 15.525 8.4738C15.4921 8.02924 15.3606 7.5976 15.14 7.21024C14.9724 6.9891 14.7399 6.8259 14.4749 6.74349C14.21 6.66107 13.9259 6.66358 13.6625 6.75066C13.3991 6.83774 13.1694 7.00503 13.0058 7.2291C12.8422 7.45317 12.7527 7.7228 12.75 8.00024C12.75 8.19916 12.671 8.38992 12.5303 8.53057C12.3896 8.67123 12.1989 8.75024 12 8.75024C11.8011 8.75024 11.6103 8.67123 11.4696 8.53057C11.329 8.38992 11.25 8.19916 11.25 8.00024C11.2567 7.8324 11.2294 7.66493 11.1695 7.508C11.1095 7.35106 11.0184 7.20793 10.9015 7.0873C10.7846 6.96666 10.6444 6.87104 10.4894 6.80622C10.3345 6.74141 10.1679 6.70875 9.99997 6.71024Z" fill="#AAC4FF"/>
<path d="M18.76 17.7502H5.23999C4.17912 17.7502 3.16171 17.3288 2.41156 16.5787C1.66142 15.8285 1.23999 14.8111 1.23999 13.7502V6.24023C1.23999 5.17937 1.66142 4.16195 2.41156 3.41181C3.16171 2.66166 4.17912 2.24023 5.23999 2.24023H18.76C19.8209 2.24023 20.8383 2.66166 21.5884 3.41181C22.3386 4.16195 22.76 5.17937 22.76 6.24023V13.7602C22.7573 14.8194 22.3347 15.8342 21.5849 16.5822C20.835 17.3302 19.8191 17.7502 18.76 17.7502ZM5.23999 3.75023C4.58041 3.75287 3.9486 4.01605 3.4822 4.48245C3.01581 4.94884 2.75262 5.58066 2.74999 6.24023V13.7602C2.75262 14.4198 3.01581 15.0516 3.4822 15.518C3.9486 15.9844 4.58041 16.2476 5.23999 16.2502H18.76C19.4196 16.2476 20.0514 15.9844 20.5178 15.518C20.9842 15.0516 21.2474 14.4198 21.25 13.7602V6.24023C21.2474 5.58066 20.9842 4.94884 20.5178 4.48245C20.0514 4.01605 19.4196 3.75287 18.76 3.75023H5.23999Z" fill="#AAC4FF"/>
<path d="M12 21.75C11.8019 21.7474 11.6126 21.6676 11.4725 21.5275C11.3324 21.3874 11.2526 21.1981 11.25 21V17C11.25 16.8011 11.329 16.6103 11.4697 16.4697C11.6103 16.329 11.8011 16.25 12 16.25C12.1989 16.25 12.3897 16.329 12.5303 16.4697C12.671 16.6103 12.75 16.8011 12.75 17V21C12.7474 21.1981 12.6676 21.3874 12.5275 21.5275C12.3874 21.6676 12.1981 21.7474 12 21.75Z" fill="#AAC4FF"/>
<path d="M18 21.75H6C5.80109 21.75 5.61032 21.671 5.46967 21.5303C5.32902 21.3897 5.25 21.1989 5.25 21C5.25 20.8011 5.32902 20.6103 5.46967 20.4697C5.61032 20.329 5.80109 20.25 6 20.25H18C18.1989 20.25 18.3897 20.329 18.5303 20.4697C18.671 20.6103 18.75 20.8011 18.75 21C18.75 21.1989 18.671 21.3897 18.5303 21.5303C18.3897 21.671 18.1989 21.75 18 21.75Z" fill="#AAC4FF"/>
</svg>
