<svg width="24" height="24" viewBox="0 0 24 24" fill="none" xmlns="http://www.w3.org/2000/svg">
<path d="M11.84 22.5197C10.1634 22.5357 8.53162 21.978 7.21556 20.939C5.89949 19.9001 4.97822 18.4424 4.6046 16.8078C4.23098 15.1732 4.42748 13.46 5.16149 11.9525C5.8955 10.445 7.1229 9.2337 8.64003 8.51971C8.81748 8.44435 9.01714 8.44023 9.19755 8.50819C9.37797 8.57615 9.52529 8.71098 9.60892 8.88468C9.69256 9.05839 9.70609 9.25763 9.64671 9.44105C9.58733 9.62447 9.45959 9.77798 9.29002 9.86971C8.09539 10.4556 7.1371 11.4325 6.57429 12.6381C6.01148 13.8438 5.87803 15.2057 6.19608 16.4977C6.51414 17.7897 7.26456 18.934 8.32275 19.7407C9.38093 20.5473 10.6832 20.9677 12.0133 20.932C13.3434 20.8964 14.6212 20.4068 15.6347 19.5447C16.6482 18.6825 17.3362 17.4996 17.5846 16.1925C17.833 14.8853 17.6267 13.5325 17.0002 12.3587C16.3736 11.1849 15.3643 10.2607 14.14 9.73971C14.0396 9.70852 13.9468 9.65657 13.8678 9.58722C13.7887 9.51787 13.7252 9.43266 13.6812 9.33715C13.6372 9.24163 13.6138 9.13793 13.6125 9.03277C13.6112 8.92762 13.632 8.82337 13.6736 8.72678C13.7152 8.6302 13.7766 8.54344 13.8539 8.47214C13.9312 8.40084 14.0226 8.3466 14.1223 8.31293C14.2219 8.27925 14.3275 8.26691 14.4322 8.27669C14.5369 8.28647 14.6384 8.31816 14.73 8.36971C16.2881 9.03474 17.5687 10.2176 18.355 11.7182C19.1414 13.2187 19.3852 14.9449 19.0453 16.6045C18.7053 18.2642 17.8025 19.7554 16.4896 20.826C15.1766 21.8966 13.5341 22.4808 11.84 22.4797V22.5197Z" fill="#AAC4FF"/>
<path d="M9.00007 9.99988C8.9012 10.0012 8.80307 9.98275 8.71147 9.94553C8.61987 9.90832 8.53666 9.85312 8.46674 9.78321C8.39683 9.7133 8.34163 9.63008 8.30442 9.53848C8.2672 9.44688 8.24872 9.34875 8.25007 9.24988V5.37988C8.25007 5.18097 8.32909 4.9902 8.46974 4.84955C8.61039 4.7089 8.80116 4.62988 9.00007 4.62988H14.4601C14.659 4.62988 14.8497 4.7089 14.9904 4.84955C15.1311 4.9902 15.2101 5.18097 15.2101 5.37988V9.09988C15.2101 9.2988 15.1311 9.48956 14.9904 9.63021C14.8497 9.77086 14.659 9.84988 14.4601 9.84988C14.2612 9.84988 14.0704 9.77086 13.9297 9.63021C13.7891 9.48956 13.7101 9.2988 13.7101 9.09988V6.09988H9.71007V9.19988C9.71684 9.29922 9.70376 9.3989 9.6716 9.49313C9.63944 9.58735 9.58884 9.67423 9.52275 9.7487C9.45666 9.82316 9.37641 9.88372 9.28667 9.92685C9.19693 9.96998 9.0995 9.9948 9.00007 9.99988Z" fill="#AAC4FF"/>
<path d="M10.78 17.7599C8.91629 17.752 7.05769 17.5645 5.22999 17.1999C5.05774 17.1696 4.9015 17.08 4.78829 16.9467C4.67507 16.8134 4.612 16.6448 4.60999 16.4699C4.61073 16.3578 4.63626 16.2472 4.68476 16.1462C4.73325 16.0451 4.8035 15.956 4.89047 15.8853C4.97745 15.8146 5.07899 15.764 5.18783 15.7371C5.29666 15.7102 5.41009 15.7078 5.51999 15.7299C5.88999 15.8099 14.58 17.5799 17.88 14.1699C18.0219 14.0318 18.212 13.9546 18.41 13.9546C18.6079 13.9546 18.7981 14.0318 18.94 14.1699C19.0673 14.3053 19.1381 14.4841 19.1381 14.6699C19.1381 14.8557 19.0673 15.0345 18.94 15.1699V15.2199C17 17.2399 13.67 17.7599 10.78 17.7599Z" fill="#AAC4FF"/>
<path d="M13.5801 6.12979H10.0001C9.9012 6.13113 9.80307 6.11265 9.71147 6.07544C9.61987 6.03822 9.53666 5.98303 9.46674 5.91311C9.39683 5.8432 9.34163 5.75998 9.30442 5.66838C9.2672 5.57678 9.24872 5.47865 9.25007 5.37979V2.52979C9.25007 2.33087 9.32909 2.14011 9.46974 1.99946C9.61039 1.8588 9.80116 1.77979 10.0001 1.77979H13.6301C13.7286 1.77979 13.8261 1.79918 13.9171 1.83688C14.0081 1.87457 14.0908 1.92981 14.1604 1.99946C14.23 2.0691 14.2853 2.15178 14.323 2.24277C14.3607 2.33377 14.3801 2.43129 14.3801 2.52979V5.37979C14.3818 5.48306 14.3619 5.58556 14.3216 5.68068C14.2814 5.7758 14.2216 5.86144 14.1463 5.93209C14.0709 6.00273 13.9816 6.05682 13.8841 6.09087C13.7866 6.12492 13.683 6.13818 13.5801 6.12979ZM10.7001 4.62979H12.8301V3.27979H10.7001V4.62979Z" fill="#AAC4FF"/>
</svg>
