<svg width="24" height="24" viewBox="0 0 24 24" fill="none" xmlns="http://www.w3.org/2000/svg">
<path d="M12.08 15.5398C11.0199 15.5398 9.98356 15.2255 9.10212 14.6365C8.22067 14.0475 7.53366 13.2104 7.12798 12.231C6.72229 11.2516 6.61615 10.1739 6.82296 9.13414C7.02978 8.0944 7.54027 7.13934 8.28988 6.38973C9.03949 5.64013 9.99455 5.12963 11.0343 4.92282C12.074 4.716 13.1517 4.82215 14.1312 5.22783C15.1106 5.63352 15.9477 6.32052 16.5366 7.20197C17.1256 8.08342 17.44 9.11972 17.44 10.1798C17.44 10.8837 17.3013 11.5807 17.032 12.231C16.7626 12.8813 16.3678 13.4722 15.8701 13.9699C15.3723 14.4676 14.7815 14.8625 14.1312 15.1318C13.4809 15.4012 12.7839 15.5398 12.08 15.5398ZM12.08 6.31983C11.3165 6.31983 10.5702 6.54621 9.93547 6.97035C9.3007 7.3945 8.80595 7.99735 8.5138 8.70267C8.22164 9.40799 8.1452 10.1841 8.29414 10.9329C8.44308 11.6816 8.81071 12.3694 9.35054 12.9093C9.89037 13.4491 10.5782 13.8167 11.3269 13.9657C12.0757 14.1146 12.8518 14.0382 13.5571 13.746C14.2625 13.4538 14.8653 12.9591 15.2894 12.3243C15.7136 11.6896 15.94 10.9433 15.94 10.1798C15.94 9.15609 15.5333 8.17428 14.8094 7.45039C14.0855 6.7265 13.1037 6.31983 12.08 6.31983Z" fill="#AAC4FF"/>
<path d="M12 19.3098C11.2958 19.3114 10.5984 19.1735 9.94786 18.904C9.29735 18.6346 8.70667 18.2389 8.20996 17.7398C8.07748 17.5976 8.00536 17.4096 8.00878 17.2153C8.01221 17.021 8.09092 16.8356 8.22834 16.6982C8.36575 16.5608 8.55114 16.4821 8.74544 16.4786C8.93974 16.4752 9.12778 16.5473 9.26996 16.6798C10.0107 17.3715 10.9864 17.7563 12 17.7563C13.0135 17.7563 13.9892 17.3715 14.73 16.6798C14.8721 16.5473 15.0602 16.4752 15.2545 16.4786C15.4488 16.4821 15.6342 16.5608 15.7716 16.6982C15.909 16.8356 15.9877 17.021 15.9911 17.2153C15.9946 17.4096 15.9224 17.5976 15.79 17.7398C15.2932 18.2389 14.7026 18.6346 14.0521 18.904C13.4015 19.1735 12.7041 19.3114 12 19.3098Z" fill="#AAC4FF"/>
<path d="M12.08 11.9999C13.0852 11.9999 13.9 11.185 13.9 10.1799C13.9 9.17471 13.0852 8.35986 12.08 8.35986C11.0749 8.35986 10.26 9.17471 10.26 10.1799C10.26 11.185 11.0749 11.9999 12.08 11.9999Z" fill="#AAC4FF"/>
<path d="M20 22.6598C19.8011 22.6598 19.6103 22.5808 19.4697 22.4401C19.329 22.2995 19.25 22.1087 19.25 21.9098V9.99981C19.1147 8.18813 18.2995 6.49458 16.9679 5.25873C15.6363 4.02287 13.8867 3.33609 12.07 3.33609C10.2533 3.33609 8.50372 4.02287 7.17212 5.25873C5.84052 6.49458 5.02533 8.18813 4.89001 9.99981V21.9098C4.89001 22.1087 4.811 22.2995 4.67034 22.4401C4.52969 22.5808 4.33893 22.6598 4.14001 22.6598C3.9411 22.6598 3.75034 22.5808 3.60968 22.4401C3.46903 22.2995 3.39001 22.1087 3.39001 21.9098V9.99981C3.4665 7.74479 4.41608 5.60768 6.03835 4.0395C7.66063 2.47131 9.8287 1.59473 12.085 1.59473C14.3413 1.59473 16.5094 2.47131 18.1317 4.0395C19.754 5.60768 20.7035 7.74479 20.78 9.99981V21.9098C20.7787 22.0105 20.7574 22.1099 20.7174 22.2023C20.6774 22.2946 20.6194 22.3781 20.5468 22.4479C20.4743 22.5177 20.3886 22.5724 20.2947 22.6087C20.2008 22.6451 20.1007 22.6625 20 22.6598Z" fill="#AAC4FF"/>
<path d="M20 22.6597H4.14001C3.9411 22.6597 3.75034 22.5807 3.60968 22.44C3.46903 22.2993 3.39001 22.1086 3.39001 21.9097C3.39001 21.7108 3.46903 21.52 3.60968 21.3793C3.75034 21.2387 3.9411 21.1597 4.14001 21.1597H20C20.1989 21.1597 20.3897 21.2387 20.5303 21.3793C20.671 21.52 20.75 21.7108 20.75 21.9097C20.75 22.1086 20.671 22.2993 20.5303 22.44C20.3897 22.5807 20.1989 22.6597 20 22.6597Z" fill="#AAC4FF"/>
</svg>
