<svg width="58" height="58" viewBox="0 0 58 58" fill="none" xmlns="http://www.w3.org/2000/svg">
<path id="Star 2" d="M23.6448 4.84538C25.3051 -0.377079 32.6949 -0.37708 34.3552 4.84537C35.4104 8.16464 39.2 9.73436 42.2932 8.13342C47.16 5.61455 52.3855 10.84 49.8666 15.7068C48.2656 18.8 49.8354 22.5896 53.1546 23.6448C58.3771 25.3051 58.3771 32.6949 53.1546 34.3552C49.8354 35.4104 48.2656 39.2 49.8666 42.2932C52.3855 47.16 47.16 52.3855 42.2932 49.8666C39.2 48.2656 35.4104 49.8354 34.3552 53.1546C32.6949 58.3771 25.3051 58.3771 23.6448 53.1546C22.5896 49.8354 18.8 48.2656 15.7068 49.8666C10.84 52.3855 5.61455 47.16 8.13342 42.2932C9.73436 39.2 8.16464 35.4104 4.84538 34.3552C-0.377079 32.6949 -0.37708 25.3051 4.84537 23.6448C8.16464 22.5896 9.73436 18.8 8.13342 15.7068C5.61455 10.84 10.84 5.61455 15.7068 8.13342C18.8 9.73436 22.5896 8.16464 23.6448 4.84538Z" fill="#AAC4FF"/>
</svg>
