<svg width="51" height="51" viewBox="0 0 51 51" fill="none" xmlns="http://www.w3.org/2000/svg">
<path d="M43.5624 15.4652L25.4999 25.4999M25.4999 25.4999L7.43743 15.4652M25.4999 25.4999L25.5 45.6875M44.625 34.1244V16.8756C44.625 16.1475 44.625 15.7834 44.5177 15.4587C44.4228 15.1714 44.2677 14.9078 44.0627 14.6853C43.8309 14.4338 43.5127 14.257 42.8762 13.9034L27.1512 5.16732C26.5485 4.83251 26.2472 4.66511 25.9281 4.59947C25.6457 4.54139 25.3544 4.54139 25.0719 4.59947C24.7528 4.66511 24.4515 4.83251 23.8488 5.16732L8.12381 13.9034C7.48733 14.257 7.16908 14.4338 6.93735 14.6853C6.73233 14.9078 6.57719 15.1715 6.48228 15.4587C6.375 15.7834 6.375 16.1475 6.375 16.8756V34.1244C6.375 34.8525 6.375 35.2166 6.48228 35.5413C6.57719 35.8285 6.73234 36.0922 6.93735 36.3147C7.16908 36.5662 7.48733 36.743 8.12382 37.0966L23.8488 45.8327C24.4515 46.1675 24.7528 46.3349 25.0719 46.4005C25.3544 46.4586 25.6457 46.4586 25.9281 46.4005C26.2472 46.3349 26.5485 46.1675 27.1512 45.8327L42.8762 37.0966C43.5127 36.743 43.8309 36.5662 44.0627 36.3147C44.2677 36.0922 44.4228 35.8285 44.5177 35.5413C44.625 35.2166 44.625 34.8525 44.625 34.1244Z" stroke="#2B2B2B" stroke-width="2" stroke-linecap="round" stroke-linejoin="round"/>
<path d="M35.0625 20.1875L15.9375 9.5625" stroke="#2B2B2B" stroke-width="2" stroke-linecap="round" stroke-linejoin="round"/>
</svg>
