<svg width="52" height="51" viewBox="0 0 52 51" fill="none" xmlns="http://www.w3.org/2000/svg">
<path d="M34.5 16.9999V9.56383C34.5 7.79639 34.5 6.91266 34.1277 6.36957C33.8024 5.89508 33.2986 5.57274 32.7315 5.47624C32.0824 5.36577 31.28 5.73611 29.6752 6.47677L10.8254 15.1767C9.3942 15.8372 8.6786 16.1675 8.15447 16.6797C7.69112 17.1326 7.33744 17.6854 7.12045 18.2958C6.875 18.9864 6.875 19.7745 6.875 21.3508V31.8749M35.5625 30.8124H35.5838M6.875 23.7999L6.875 37.8249C6.875 40.2052 6.875 41.3953 7.33822 42.3044C7.74568 43.1041 8.39585 43.7543 9.19554 44.1617C10.1047 44.6249 11.2948 44.6249 13.675 44.6249H38.325C40.7052 44.6249 41.8953 44.6249 42.8045 44.1617C43.6041 43.7543 44.2543 43.1041 44.6618 42.3044C45.125 41.3953 45.125 40.2052 45.125 37.8249V23.7999C45.125 21.4197 45.125 20.2296 44.6618 19.3205C44.2543 18.5208 43.6042 17.8706 42.8045 17.4632C41.8953 16.9999 40.7052 16.9999 38.325 16.9999L13.675 16.9999C11.2948 16.9999 10.1047 16.9999 9.19554 17.4632C8.39585 17.8706 7.74568 18.5208 7.33822 19.3205C6.875 20.2296 6.875 21.4197 6.875 23.7999ZM36.625 30.8124C36.625 31.3992 36.1493 31.8749 35.5625 31.8749C34.9757 31.8749 34.5 31.3992 34.5 30.8124C34.5 30.2256 34.9757 29.7499 35.5625 29.7499C36.1493 29.7499 36.625 30.2256 36.625 30.8124Z" stroke="#2B2B2B" stroke-width="2" stroke-linecap="round" stroke-linejoin="round"/>
</svg>
